<svg width="100%" height="101" viewBox="0 0 458 101" fill="none" xmlns="http://www.w3.org/2000/svg">
<path d="M26.907 13.4535C26.907 6.02335 20.8836 -1.90735e-06 13.4535 -1.90735e-06C6.02329 -1.90735e-06 0 6.02335 0 13.4535C0 20.8837 6.02329 26.907 13.4535 26.907C20.8836 26.907 26.907 20.8837 26.907 13.4535Z" fill="#601DB3"></path>
<path d="M26.907 50.0489C26.907 42.6187 20.8836 36.5953 13.4535 36.5953C6.02329 36.5953 0 42.6187 0 50.0489C0 57.479 6.02329 63.5024 13.4535 63.5024C20.8836 63.5024 26.907 57.479 26.907 50.0489Z" fill="#601DB3"></path>
<path d="M26.907 86.6465C26.907 79.2163 20.8836 73.193 13.4535 73.193C6.02329 73.193 0 79.2163 0 86.6465C0 94.0767 6.02329 100.1 13.4535 100.1C20.8836 100.1 26.907 94.0767 26.907 86.6465Z" fill="#B8B3AF"></path>
<path d="M13.4534 73.1907C2.40689 73.1907 0.49939 83 0.49939 83H26.4076C26.4076 83 24.5 73.1907 13.4534 73.1907Z" fill="#601DB3"></path>
<path d="M62.8139 13.4546C62.8139 6.02449 56.7906 0.00113487 49.3604 0.00113487C41.9303 0.00113487 35.907 6.02449 35.907 13.4546C35.907 20.8848 41.9303 26.9082 49.3604 26.9082C56.7906 26.9082 62.8139 20.8848 62.8139 13.4546Z" fill="#B8B3AF"></path>
<path d="M62.8139 50.0501C62.8139 42.6199 56.7906 36.5966 49.3604 36.5966C41.9303 36.5966 35.907 42.6199 35.907 50.0501C35.907 57.4802 41.9303 63.5036 49.3604 63.5036C56.7906 63.5036 62.8139 57.4802 62.8139 50.0501Z" fill="#B8B3AF"></path>
<path d="M62.8139 86.6454C62.8139 79.2152 56.7906 73.1919 49.3604 73.1919C41.9303 73.1919 35.907 79.2152 35.907 86.6454C35.907 94.0756 41.9303 100.099 49.3604 100.099C56.7906 100.099 62.8139 94.0756 62.8139 86.6454Z" fill="#B8B3AF"></path>
<path d="M98.7209 13.4546C98.7209 6.02449 92.6976 0.00113487 85.2674 0.00113487C77.8373 0.00113487 71.814 6.02449 71.814 13.4546C71.814 20.8848 77.8373 26.9082 85.2674 26.9082C92.6976 26.9082 98.7209 20.8848 98.7209 13.4546Z" fill="#B8B3AF"></path>
<path d="M98.7209 50.0501C98.7209 42.6199 92.6976 36.5966 85.2674 36.5966C77.8373 36.5966 71.814 42.6199 71.814 50.0501C71.814 57.4802 77.8373 63.5036 85.2674 63.5036C92.6976 63.5036 98.7209 57.4802 98.7209 50.0501Z" fill="#B8B3AF"></path>
<path d="M98.7209 86.6454C98.7209 79.2152 92.6976 73.1919 85.2674 73.1919C77.8373 73.1919 71.814 79.2152 71.814 86.6454C71.814 94.0756 77.8373 100.099 85.2674 100.099C92.6976 100.099 98.7209 94.0756 98.7209 86.6454Z" fill="#B8B3AF"></path>
<path d="M134.628 13.4546C134.628 6.02449 128.604 0.00113487 121.174 0.00113487C113.744 0.00113487 107.721 6.02449 107.721 13.4546C107.721 20.8848 113.744 26.9082 121.174 26.9082C128.604 26.9082 134.628 20.8848 134.628 13.4546Z" fill="#B8B3AF"></path>
<path d="M134.628 50.0501C134.628 42.6199 128.604 36.5966 121.174 36.5966C113.744 36.5966 107.721 42.6199 107.721 50.0501C107.721 57.4802 113.744 63.5036 121.174 63.5036C128.604 63.5036 134.628 57.4802 134.628 50.0501Z" fill="#B8B3AF"></path>
<path d="M134.628 86.6454C134.628 79.2152 128.604 73.1919 121.174 73.1919C113.744 73.1919 107.721 79.2152 107.721 86.6454C107.721 94.0756 113.744 100.099 121.174 100.099C128.604 100.099 134.628 94.0756 134.628 86.6454Z" fill="#B8B3AF"></path>
<path d="M170.535 13.4546C170.535 6.02449 164.511 0.00113487 157.081 0.00113487C149.651 0.00113487 143.628 6.02449 143.628 13.4546C143.628 20.8848 149.651 26.9082 157.081 26.9082C164.511 26.9082 170.535 20.8848 170.535 13.4546Z" fill="#B8B3AF"></path>
<path d="M170.535 50.0501C170.535 42.6199 164.511 36.5966 157.081 36.5966C149.651 36.5966 143.628 42.6199 143.628 50.0501C143.628 57.4802 149.651 63.5036 157.081 63.5036C164.511 63.5036 170.535 57.4802 170.535 50.0501Z" fill="#B8B3AF"></path>
<path d="M170.535 86.6454C170.535 79.2152 164.511 73.1919 157.081 73.1919C149.651 73.1919 143.628 79.2152 143.628 86.6454C143.628 94.0756 149.651 100.099 157.081 100.099C164.511 100.099 170.535 94.0756 170.535 86.6454Z" fill="#B8B3AF"></path>
<path d="M206.442 13.4546C206.442 6.02449 200.418 0.00113487 192.988 0.00113487C185.558 0.00113487 179.535 6.02449 179.535 13.4546C179.535 20.8848 185.558 26.9082 192.988 26.9082C200.418 26.9082 206.442 20.8848 206.442 13.4546Z" fill="#B8B3AF"></path>
<path d="M206.442 50.0501C206.442 42.6199 200.418 36.5966 192.988 36.5966C185.558 36.5966 179.535 42.6199 179.535 50.0501C179.535 57.4802 185.558 63.5036 192.988 63.5036C200.418 63.5036 206.442 57.4802 206.442 50.0501Z" fill="#B8B3AF"></path>
<path d="M206.442 86.6454C206.442 79.2152 200.418 73.1919 192.988 73.1919C185.558 73.1919 179.535 79.2152 179.535 86.6454C179.535 94.0756 185.558 100.099 192.988 100.099C200.418 100.099 206.442 94.0756 206.442 86.6454Z" fill="#B8B3AF"></path>
<path d="M242.349 13.4546C242.349 6.02449 236.325 0.00113487 228.895 0.00113487C221.465 0.00113487 215.442 6.02449 215.442 13.4546C215.442 20.8848 221.465 26.9082 228.895 26.9082C236.325 26.9082 242.349 20.8848 242.349 13.4546Z" fill="#B8B3AF"></path>
<path d="M242.349 50.0501C242.349 42.6199 236.325 36.5966 228.895 36.5966C221.465 36.5966 215.442 42.6199 215.442 50.0501C215.442 57.4802 221.465 63.5036 228.895 63.5036C236.325 63.5036 242.349 57.4802 242.349 50.0501Z" fill="#B8B3AF"></path>
<path d="M242.349 86.6454C242.349 79.2152 236.325 73.1919 228.895 73.1919C221.465 73.1919 215.442 79.2152 215.442 86.6454C215.442 94.0756 221.465 100.099 228.895 100.099C236.325 100.099 242.349 94.0756 242.349 86.6454Z" fill="#B8B3AF"></path>
<path d="M278.256 13.4546C278.256 6.02449 272.232 0.00113487 264.802 0.00113487C257.372 0.00113487 251.349 6.02449 251.349 13.4546C251.349 20.8848 257.372 26.9082 264.802 26.9082C272.232 26.9082 278.256 20.8848 278.256 13.4546Z" fill="#B8B3AF"></path>
<path d="M278.256 50.0501C278.256 42.6199 272.232 36.5966 264.802 36.5966C257.372 36.5966 251.349 42.6199 251.349 50.0501C251.349 57.4802 257.372 63.5036 264.802 63.5036C272.232 63.5036 278.256 57.4802 278.256 50.0501Z" fill="#B8B3AF"></path>
<path d="M278.256 86.6454C278.256 79.2152 272.232 73.1919 264.802 73.1919C257.372 73.1919 251.349 79.2152 251.349 86.6454C251.349 94.0756 257.372 100.099 264.802 100.099C272.232 100.099 278.256 94.0756 278.256 86.6454Z" fill="#B8B3AF"></path>
<path d="M314.163 13.4546C314.163 6.02449 308.139 0.00113487 300.709 0.00113487C293.279 0.00113487 287.256 6.02449 287.256 13.4546C287.256 20.8848 293.279 26.9082 300.709 26.9082C308.139 26.9082 314.163 20.8848 314.163 13.4546Z" fill="#B8B3AF"></path>
<path d="M314.163 50.0501C314.163 42.6199 308.139 36.5966 300.709 36.5966C293.279 36.5966 287.256 42.6199 287.256 50.0501C287.256 57.4802 293.279 63.5036 300.709 63.5036C308.139 63.5036 314.163 57.4802 314.163 50.0501Z" fill="#B8B3AF"></path>
<path d="M314.163 86.6454C314.163 79.2152 308.139 73.1919 300.709 73.1919C293.279 73.1919 287.256 79.2152 287.256 86.6454C287.256 94.0756 293.279 100.099 300.709 100.099C308.139 100.099 314.163 94.0756 314.163 86.6454Z" fill="#B8B3AF"></path>
<path d="M350.07 13.4546C350.07 6.02449 344.046 0.00113487 336.616 0.00113487C329.186 0.00113487 323.163 6.02449 323.163 13.4546C323.163 20.8848 329.186 26.9082 336.616 26.9082C344.046 26.9082 350.07 20.8848 350.07 13.4546Z" fill="#B8B3AF"></path>
<path d="M350.07 50.0501C350.07 42.6199 344.046 36.5966 336.616 36.5966C329.186 36.5966 323.163 42.6199 323.163 50.0501C323.163 57.4802 329.186 63.5036 336.616 63.5036C344.046 63.5036 350.07 57.4802 350.07 50.0501Z" fill="#B8B3AF"></path>
<path d="M350.07 86.6454C350.07 79.2152 344.046 73.1919 336.616 73.1919C329.186 73.1919 323.163 79.2152 323.163 86.6454C323.163 94.0756 329.186 100.099 336.616 100.099C344.046 100.099 350.07 94.0756 350.07 86.6454Z" fill="#B8B3AF"></path>
<path d="M385.977 13.4546C385.977 6.02449 379.953 0.00113487 372.523 0.00113487C365.093 0.00113487 359.07 6.02449 359.07 13.4546C359.07 20.8848 365.093 26.9082 372.523 26.9082C379.953 26.9082 385.977 20.8848 385.977 13.4546Z" fill="#B8B3AF"></path>
<path d="M385.977 50.0501C385.977 42.6199 379.953 36.5966 372.523 36.5966C365.093 36.5966 359.07 42.6199 359.07 50.0501C359.07 57.4802 365.093 63.5036 372.523 63.5036C379.953 63.5036 385.977 57.4802 385.977 50.0501Z" fill="#B8B3AF"></path>
<path d="M385.977 86.6454C385.977 79.2152 379.953 73.1919 372.523 73.1919C365.093 73.1919 359.07 79.2152 359.07 86.6454C359.07 94.0756 365.093 100.099 372.523 100.099C379.953 100.099 385.977 94.0756 385.977 86.6454Z" fill="#B8B3AF"></path>
<path d="M421.884 13.4546C421.884 6.02449 415.86 0.00113487 408.43 0.00113487C401 0.00113487 394.977 6.02449 394.977 13.4546C394.977 20.8848 401 26.9082 408.43 26.9082C415.86 26.9082 421.884 20.8848 421.884 13.4546Z" fill="#B8B3AF"></path>
<path d="M421.884 50.0501C421.884 42.6199 415.86 36.5966 408.43 36.5966C401 36.5966 394.977 42.6199 394.977 50.0501C394.977 57.4802 401 63.5036 408.43 63.5036C415.86 63.5036 421.884 57.4802 421.884 50.0501Z" fill="#B8B3AF"></path>
<path d="M421.884 86.6454C421.884 79.2152 415.86 73.1919 408.43 73.1919C401 73.1919 394.977 79.2152 394.977 86.6454C394.977 94.0756 401 100.099 408.43 100.099C415.86 100.099 421.884 94.0756 421.884 86.6454Z" fill="#B8B3AF"></path>
<path d="M457.791 32.0965C457.791 24.6663 451.767 18.643 444.337 18.643C436.907 18.643 430.884 24.6663 430.884 32.0965C430.884 39.5266 436.907 45.55 444.337 45.55C451.767 45.55 457.791 39.5266 457.791 32.0965Z" fill="#B8B3AF"></path>
<path d="M457.791 68.0035C457.791 60.5734 451.767 54.55 444.337 54.55C436.907 54.55 430.884 60.5734 430.884 68.0035C430.884 75.4337 436.907 81.457 444.337 81.457C451.767 81.457 457.791 75.4337 457.791 68.0035Z" fill="#B8B3AF"></path>
</svg><svg width="458" height="101" viewBox="0 0 458 101" fill="none" xmlns="http://www.w3.org/2000/svg">
<path d="M26.907 13.4535C26.907 6.02335 20.8836 -1.90735e-06 13.4535 -1.90735e-06C6.02329 -1.90735e-06 0 6.02335 0 13.4535C0 20.8837 6.02329 26.907 13.4535 26.907C20.8836 26.907 26.907 20.8837 26.907 13.4535Z" fill="#601DB3"></path>
<path d="M26.907 50.0489C26.907 42.6187 20.8836 36.5953 13.4535 36.5953C6.02329 36.5953 0 42.6187 0 50.0489C0 57.479 6.02329 63.5024 13.4535 63.5024C20.8836 63.5024 26.907 57.479 26.907 50.0489Z" fill="#601DB3"></path>
<path d="M26.907 86.6465C26.907 79.2163 20.8836 73.193 13.4535 73.193C6.02329 73.193 0 79.2163 0 86.6465C0 94.0767 6.02329 100.1 13.4535 100.1C20.8836 100.1 26.907 94.0767 26.907 86.6465Z" fill="#B8B3AF"></path>
<path d="M13.4534 73.1907C2.40689 73.1907 0.49939 83 0.49939 83H26.4076C26.4076 83 24.5 73.1907 13.4534 73.1907Z" fill="#601DB3"></path>
<path d="M62.8139 13.4546C62.8139 6.02449 56.7906 0.00113487 49.3604 0.00113487C41.9303 0.00113487 35.907 6.02449 35.907 13.4546C35.907 20.8848 41.9303 26.9082 49.3604 26.9082C56.7906 26.9082 62.8139 20.8848 62.8139 13.4546Z" fill="#B8B3AF"></path>
<path d="M62.8139 50.0501C62.8139 42.6199 56.7906 36.5966 49.3604 36.5966C41.9303 36.5966 35.907 42.6199 35.907 50.0501C35.907 57.4802 41.9303 63.5036 49.3604 63.5036C56.7906 63.5036 62.8139 57.4802 62.8139 50.0501Z" fill="#B8B3AF"></path>
<path d="M62.8139 86.6454C62.8139 79.2152 56.7906 73.1919 49.3604 73.1919C41.9303 73.1919 35.907 79.2152 35.907 86.6454C35.907 94.0756 41.9303 100.099 49.3604 100.099C56.7906 100.099 62.8139 94.0756 62.8139 86.6454Z" fill="#B8B3AF"></path>
<path d="M98.7209 13.4546C98.7209 6.02449 92.6976 0.00113487 85.2674 0.00113487C77.8373 0.00113487 71.814 6.02449 71.814 13.4546C71.814 20.8848 77.8373 26.9082 85.2674 26.9082C92.6976 26.9082 98.7209 20.8848 98.7209 13.4546Z" fill="#B8B3AF"></path>
<path d="M98.7209 50.0501C98.7209 42.6199 92.6976 36.5966 85.2674 36.5966C77.8373 36.5966 71.814 42.6199 71.814 50.0501C71.814 57.4802 77.8373 63.5036 85.2674 63.5036C92.6976 63.5036 98.7209 57.4802 98.7209 50.0501Z" fill="#B8B3AF"></path>
<path d="M98.7209 86.6454C98.7209 79.2152 92.6976 73.1919 85.2674 73.1919C77.8373 73.1919 71.814 79.2152 71.814 86.6454C71.814 94.0756 77.8373 100.099 85.2674 100.099C92.6976 100.099 98.7209 94.0756 98.7209 86.6454Z" fill="#B8B3AF"></path>
<path d="M134.628 13.4546C134.628 6.02449 128.604 0.00113487 121.174 0.00113487C113.744 0.00113487 107.721 6.02449 107.721 13.4546C107.721 20.8848 113.744 26.9082 121.174 26.9082C128.604 26.9082 134.628 20.8848 134.628 13.4546Z" fill="#B8B3AF"></path>
<path d="M134.628 50.0501C134.628 42.6199 128.604 36.5966 121.174 36.5966C113.744 36.5966 107.721 42.6199 107.721 50.0501C107.721 57.4802 113.744 63.5036 121.174 63.5036C128.604 63.5036 134.628 57.4802 134.628 50.0501Z" fill="#B8B3AF"></path>
<path d="M134.628 86.6454C134.628 79.2152 128.604 73.1919 121.174 73.1919C113.744 73.1919 107.721 79.2152 107.721 86.6454C107.721 94.0756 113.744 100.099 121.174 100.099C128.604 100.099 134.628 94.0756 134.628 86.6454Z" fill="#B8B3AF"></path>
<path d="M170.535 13.4546C170.535 6.02449 164.511 0.00113487 157.081 0.00113487C149.651 0.00113487 143.628 6.02449 143.628 13.4546C143.628 20.8848 149.651 26.9082 157.081 26.9082C164.511 26.9082 170.535 20.8848 170.535 13.4546Z" fill="#B8B3AF"></path>
<path d="M170.535 50.0501C170.535 42.6199 164.511 36.5966 157.081 36.5966C149.651 36.5966 143.628 42.6199 143.628 50.0501C143.628 57.4802 149.651 63.5036 157.081 63.5036C164.511 63.5036 170.535 57.4802 170.535 50.0501Z" fill="#B8B3AF"></path>
<path d="M170.535 86.6454C170.535 79.2152 164.511 73.1919 157.081 73.1919C149.651 73.1919 143.628 79.2152 143.628 86.6454C143.628 94.0756 149.651 100.099 157.081 100.099C164.511 100.099 170.535 94.0756 170.535 86.6454Z" fill="#B8B3AF"></path>
<path d="M206.442 13.4546C206.442 6.02449 200.418 0.00113487 192.988 0.00113487C185.558 0.00113487 179.535 6.02449 179.535 13.4546C179.535 20.8848 185.558 26.9082 192.988 26.9082C200.418 26.9082 206.442 20.8848 206.442 13.4546Z" fill="#B8B3AF"></path>
<path d="M206.442 50.0501C206.442 42.6199 200.418 36.5966 192.988 36.5966C185.558 36.5966 179.535 42.6199 179.535 50.0501C179.535 57.4802 185.558 63.5036 192.988 63.5036C200.418 63.5036 206.442 57.4802 206.442 50.0501Z" fill="#B8B3AF"></path>
<path d="M206.442 86.6454C206.442 79.2152 200.418 73.1919 192.988 73.1919C185.558 73.1919 179.535 79.2152 179.535 86.6454C179.535 94.0756 185.558 100.099 192.988 100.099C200.418 100.099 206.442 94.0756 206.442 86.6454Z" fill="#B8B3AF"></path>
<path d="M242.349 13.4546C242.349 6.02449 236.325 0.00113487 228.895 0.00113487C221.465 0.00113487 215.442 6.02449 215.442 13.4546C215.442 20.8848 221.465 26.9082 228.895 26.9082C236.325 26.9082 242.349 20.8848 242.349 13.4546Z" fill="#B8B3AF"></path>
<path d="M242.349 50.0501C242.349 42.6199 236.325 36.5966 228.895 36.5966C221.465 36.5966 215.442 42.6199 215.442 50.0501C215.442 57.4802 221.465 63.5036 228.895 63.5036C236.325 63.5036 242.349 57.4802 242.349 50.0501Z" fill="#B8B3AF"></path>
<path d="M242.349 86.6454C242.349 79.2152 236.325 73.1919 228.895 73.1919C221.465 73.1919 215.442 79.2152 215.442 86.6454C215.442 94.0756 221.465 100.099 228.895 100.099C236.325 100.099 242.349 94.0756 242.349 86.6454Z" fill="#B8B3AF"></path>
<path d="M278.256 13.4546C278.256 6.02449 272.232 0.00113487 264.802 0.00113487C257.372 0.00113487 251.349 6.02449 251.349 13.4546C251.349 20.8848 257.372 26.9082 264.802 26.9082C272.232 26.9082 278.256 20.8848 278.256 13.4546Z" fill="#B8B3AF"></path>
<path d="M278.256 50.0501C278.256 42.6199 272.232 36.5966 264.802 36.5966C257.372 36.5966 251.349 42.6199 251.349 50.0501C251.349 57.4802 257.372 63.5036 264.802 63.5036C272.232 63.5036 278.256 57.4802 278.256 50.0501Z" fill="#B8B3AF"></path>
<path d="M278.256 86.6454C278.256 79.2152 272.232 73.1919 264.802 73.1919C257.372 73.1919 251.349 79.2152 251.349 86.6454C251.349 94.0756 257.372 100.099 264.802 100.099C272.232 100.099 278.256 94.0756 278.256 86.6454Z" fill="#B8B3AF"></path>
<path d="M314.163 13.4546C314.163 6.02449 308.139 0.00113487 300.709 0.00113487C293.279 0.00113487 287.256 6.02449 287.256 13.4546C287.256 20.8848 293.279 26.9082 300.709 26.9082C308.139 26.9082 314.163 20.8848 314.163 13.4546Z" fill="#B8B3AF"></path>
<path d="M314.163 50.0501C314.163 42.6199 308.139 36.5966 300.709 36.5966C293.279 36.5966 287.256 42.6199 287.256 50.0501C287.256 57.4802 293.279 63.5036 300.709 63.5036C308.139 63.5036 314.163 57.4802 314.163 50.0501Z" fill="#B8B3AF"></path>
<path d="M314.163 86.6454C314.163 79.2152 308.139 73.1919 300.709 73.1919C293.279 73.1919 287.256 79.2152 287.256 86.6454C287.256 94.0756 293.279 100.099 300.709 100.099C308.139 100.099 314.163 94.0756 314.163 86.6454Z" fill="#B8B3AF"></path>
<path d="M350.07 13.4546C350.07 6.02449 344.046 0.00113487 336.616 0.00113487C329.186 0.00113487 323.163 6.02449 323.163 13.4546C323.163 20.8848 329.186 26.9082 336.616 26.9082C344.046 26.9082 350.07 20.8848 350.07 13.4546Z" fill="#B8B3AF"></path>
<path d="M350.07 50.0501C350.07 42.6199 344.046 36.5966 336.616 36.5966C329.186 36.5966 323.163 42.6199 323.163 50.0501C323.163 57.4802 329.186 63.5036 336.616 63.5036C344.046 63.5036 350.07 57.4802 350.07 50.0501Z" fill="#B8B3AF"></path>
<path d="M350.07 86.6454C350.07 79.2152 344.046 73.1919 336.616 73.1919C329.186 73.1919 323.163 79.2152 323.163 86.6454C323.163 94.0756 329.186 100.099 336.616 100.099C344.046 100.099 350.07 94.0756 350.07 86.6454Z" fill="#B8B3AF"></path>
<path d="M385.977 13.4546C385.977 6.02449 379.953 0.00113487 372.523 0.00113487C365.093 0.00113487 359.07 6.02449 359.07 13.4546C359.07 20.8848 365.093 26.9082 372.523 26.9082C379.953 26.9082 385.977 20.8848 385.977 13.4546Z" fill="#B8B3AF"></path>
<path d="M385.977 50.0501C385.977 42.6199 379.953 36.5966 372.523 36.5966C365.093 36.5966 359.07 42.6199 359.07 50.0501C359.07 57.4802 365.093 63.5036 372.523 63.5036C379.953 63.5036 385.977 57.4802 385.977 50.0501Z" fill="#B8B3AF"></path>
<path d="M385.977 86.6454C385.977 79.2152 379.953 73.1919 372.523 73.1919C365.093 73.1919 359.07 79.2152 359.07 86.6454C359.07 94.0756 365.093 100.099 372.523 100.099C379.953 100.099 385.977 94.0756 385.977 86.6454Z" fill="#B8B3AF"></path>
<path d="M421.884 13.4546C421.884 6.02449 415.86 0.00113487 408.43 0.00113487C401 0.00113487 394.977 6.02449 394.977 13.4546C394.977 20.8848 401 26.9082 408.43 26.9082C415.86 26.9082 421.884 20.8848 421.884 13.4546Z" fill="#B8B3AF"></path>
<path d="M421.884 50.0501C421.884 42.6199 415.86 36.5966 408.43 36.5966C401 36.5966 394.977 42.6199 394.977 50.0501C394.977 57.4802 401 63.5036 408.43 63.5036C415.86 63.5036 421.884 57.4802 421.884 50.0501Z" fill="#B8B3AF"></path>
<path d="M421.884 86.6454C421.884 79.2152 415.86 73.1919 408.43 73.1919C401 73.1919 394.977 79.2152 394.977 86.6454C394.977 94.0756 401 100.099 408.43 100.099C415.86 100.099 421.884 94.0756 421.884 86.6454Z" fill="#B8B3AF"></path>
<path d="M457.791 32.0965C457.791 24.6663 451.767 18.643 444.337 18.643C436.907 18.643 430.884 24.6663 430.884 32.0965C430.884 39.5266 436.907 45.55 444.337 45.55C451.767 45.55 457.791 39.5266 457.791 32.0965Z" fill="#B8B3AF"></path>
<path d="M457.791 68.0035C457.791 60.5734 451.767 54.55 444.337 54.55C436.907 54.55 430.884 60.5734 430.884 68.0035C430.884 75.4337 436.907 81.457 444.337 81.457C451.767 81.457 457.791 75.4337 457.791 68.0035Z" fill="#B8B3AF"></path>
</svg>