<svg width="100%" height="101" viewBox="0 0 421 101" fill="none" xmlns="http://www.w3.org/2000/svg">
<path d="M43.0002 21.5488C43.0002 9.67467 33.3743 0.0487518 21.5002 0.0487518C9.62606 0.0487518 0.000244141 9.67467 0.000244141 21.5488C0.000244141 33.4229 9.62606 43.0488 21.5002 43.0488C33.3743 43.0488 43.0002 33.4229 43.0002 21.5488Z" fill="#B8B3AF"/>
<path d="M43.0002 78.5489C43.0002 66.6748 33.3743 57.0489 21.5002 57.0489C9.62606 57.0489 0.000244141 66.6748 0.000244141 78.5489C0.000244141 90.423 9.62606 100.049 21.5002 100.049C33.3743 100.049 43.0002 90.423 43.0002 78.5489Z" fill="#B8B3AF"/>
<path d="M97.0002 21.5488C97.0002 9.67467 87.3743 0.0487518 75.5002 0.0487518C63.6261 0.0487518 54.0002 9.67467 54.0002 21.5488C54.0002 33.4229 63.6261 43.0488 75.5002 43.0488C87.3743 43.0488 97.0002 33.4229 97.0002 21.5488Z" fill="#B8B3AF"/>
<path d="M97.0002 78.5489C97.0002 66.6748 87.3743 57.0489 75.5002 57.0489C63.6261 57.0489 54.0002 66.6748 54.0002 78.5489C54.0002 90.423 63.6261 100.049 75.5002 100.049C87.3743 100.049 97.0002 90.423 97.0002 78.5489Z" fill="#B8B3AF"/>
<path d="M151 21.5488C151 9.67467 141.374 0.0487518 129.5 0.0487518C117.626 0.0487518 108 9.67467 108 21.5488C108 33.4229 117.626 43.0488 129.5 43.0488C141.374 43.0488 151 33.4229 151 21.5488Z" fill="#B8B3AF"/>
<path d="M151 78.5489C151 66.6748 141.374 57.0489 129.5 57.0489C117.626 57.0489 108 66.6748 108 78.5489C108 90.423 117.626 100.049 129.5 100.049C141.374 100.049 151 90.423 151 78.5489Z" fill="#B8B3AF"/>
<path d="M205 21.5488C205 9.67467 195.374 0.0487518 183.5 0.0487518C171.626 0.0487518 162 9.67467 162 21.5488C162 33.4229 171.626 43.0488 183.5 43.0488C195.374 43.0488 205 33.4229 205 21.5488Z" fill="#B8B3AF"/>
<path d="M205 78.5489C205 66.6748 195.374 57.0489 183.5 57.0489C171.626 57.0489 162 66.6748 162 78.5489C162 90.423 171.626 100.049 183.5 100.049C195.374 100.049 205 90.423 205 78.5489Z" fill="#B8B3AF"/>
<path d="M259 21.5488C259 9.67467 249.374 0.0487518 237.5 0.0487518C225.626 0.0487518 216 9.67467 216 21.5488C216 33.4229 225.626 43.0488 237.5 43.0488C249.374 43.0488 259 33.4229 259 21.5488Z" fill="#B8B3AF"/>
<path d="M259 78.5489C259 66.6748 249.374 57.0489 237.5 57.0489C225.626 57.0489 216 66.6748 216 78.5489C216 90.423 225.626 100.049 237.5 100.049C249.374 100.049 259 90.423 259 78.5489Z" fill="#B8B3AF"/>
<path d="M313 21.5488C313 9.67467 303.374 0.0487518 291.5 0.0487518C279.626 0.0487518 270 9.67467 270 21.5488C270 33.4229 279.626 43.0488 291.5 43.0488C303.374 43.0488 313 33.4229 313 21.5488Z" fill="#B8B3AF"/>
<path d="M313 78.5489C313 66.6748 303.374 57.0489 291.5 57.0489C279.626 57.0489 270 66.6748 270 78.5489C270 90.423 279.626 100.049 291.5 100.049C303.374 100.049 313 90.423 313 78.5489Z" fill="#B8B3AF"/>
<path d="M367 21.5488C367 9.67467 357.374 0.0487518 345.5 0.0487518C333.626 0.0487518 324 9.67467 324 21.5488C324 33.4229 333.626 43.0488 345.5 43.0488C357.374 43.0488 367 33.4229 367 21.5488Z" fill="#B8B3AF"/>
<path d="M367 78.5489C367 66.6748 357.374 57.0489 345.5 57.0489C333.626 57.0489 324 66.6748 324 78.5489C324 90.423 333.626 100.049 345.5 100.049C357.374 100.049 367 90.423 367 78.5489Z" fill="#B8B3AF"/>
<path d="M421 21.5489C421 9.67479 411.374 0.0488739 399.5 0.0488739C387.626 0.0488739 378 9.67479 378 21.5489C378 33.423 387.626 43.049 399.5 43.049C411.374 43.049 421 33.423 421 21.5489Z" fill="#18C1A3"/>
<path d="M421 21.5493C421 9.67516 411.374 0.0492401 399.5 0.0492401C387.626 0.0492401 378 9.67516 378 21.5493C378 33.4234 385.5 39.0493 399.5 39.0493C413.5 39.0493 421 33.4234 421 21.5493Z" fill="#B8B3AF"/>
<path d="M421 78.5489C421 66.6748 411.374 57.0489 399.5 57.0489C387.626 57.0489 378 66.6748 378 78.5489C378 90.423 387.626 100.049 399.5 100.049C411.374 100.049 421 90.423 421 78.5489Z" fill="#18C1A3"/>
</svg>
