<svg width="100%" height="101" viewBox="0 0 422 101" fill="none" xmlns="http://www.w3.org/2000/svg">
<path d="M27.0194 13.4535C27.0194 6.02335 20.996 -1.90735e-06 13.5659 -1.90735e-06C6.13572 -1.90735e-06 0.112427 6.02335 0.112427 13.4535C0.112427 20.8837 6.13572 26.907 13.5659 26.907C20.996 26.907 27.0194 20.8837 27.0194 13.4535Z" fill="#B8B3AF"></path>
<path d="M27.0194 50.0489C27.0194 42.6188 20.996 36.5954 13.5659 36.5954C6.13572 36.5954 0.112427 42.6188 0.112427 50.0489C0.112427 57.4791 6.13572 63.5025 13.5659 63.5025C20.996 63.5025 27.0194 57.4791 27.0194 50.0489Z" fill="#B8B3AF"></path>
<path d="M27.0194 86.6443C27.0194 79.2141 20.996 73.1908 13.5659 73.1908C6.13572 73.1908 0.112427 79.2141 0.112427 86.6443C0.112427 94.0744 6.13572 100.098 13.5659 100.098C20.996 100.098 27.0194 94.0744 27.0194 86.6443Z" fill="#B8B3AF"></path>
<path d="M62.9264 13.4535C62.9264 6.02335 56.903 -1.90735e-06 49.4729 -1.90735e-06C42.0427 -1.90735e-06 36.0194 6.02335 36.0194 13.4535C36.0194 20.8837 42.0427 26.907 49.4729 26.907C56.903 26.907 62.9264 20.8837 62.9264 13.4535Z" fill="#B8B3AF"></path>
<path d="M62.9264 50.0489C62.9264 42.6188 56.903 36.5954 49.4729 36.5954C42.0427 36.5954 36.0194 42.6188 36.0194 50.0489C36.0194 57.4791 42.0427 63.5025 49.4729 63.5025C56.903 63.5025 62.9264 57.4791 62.9264 50.0489Z" fill="#B8B3AF"></path>
<path d="M62.9264 86.6443C62.9264 79.2141 56.903 73.1908 49.4729 73.1908C42.0427 73.1908 36.0194 79.2141 36.0194 86.6443C36.0194 94.0744 42.0427 100.098 49.4729 100.098C56.903 100.098 62.9264 94.0744 62.9264 86.6443Z" fill="#B8B3AF"></path>
<path d="M98.8334 13.4535C98.8334 6.02335 92.81 -1.90735e-06 85.3798 -1.90735e-06C77.9497 -1.90735e-06 71.9264 6.02335 71.9264 13.4535C71.9264 20.8837 77.9497 26.907 85.3798 26.907C92.81 26.907 98.8334 20.8837 98.8334 13.4535Z" fill="#B8B3AF"></path>
<path d="M98.8334 50.0489C98.8334 42.6188 92.81 36.5954 85.3798 36.5954C77.9497 36.5954 71.9264 42.6188 71.9264 50.0489C71.9264 57.4791 77.9497 63.5025 85.3798 63.5025C92.81 63.5025 98.8334 57.4791 98.8334 50.0489Z" fill="#B8B3AF"></path>
<path d="M98.8334 86.6443C98.8334 79.2141 92.81 73.1908 85.3798 73.1908C77.9497 73.1908 71.9264 79.2141 71.9264 86.6443C71.9264 94.0744 77.9497 100.098 85.3798 100.098C92.81 100.098 98.8334 94.0744 98.8334 86.6443Z" fill="#B8B3AF"></path>
<path d="M134.74 13.4535C134.74 6.02335 128.717 -1.90735e-06 121.287 -1.90735e-06C113.857 -1.90735e-06 107.833 6.02335 107.833 13.4535C107.833 20.8837 113.857 26.907 121.287 26.907C128.717 26.907 134.74 20.8837 134.74 13.4535Z" fill="#B8B3AF"></path>
<path d="M134.74 50.0489C134.74 42.6188 128.717 36.5954 121.287 36.5954C113.857 36.5954 107.833 42.6188 107.833 50.0489C107.833 57.4791 113.857 63.5025 121.287 63.5025C128.717 63.5025 134.74 57.4791 134.74 50.0489Z" fill="#B8B3AF"></path>
<path d="M134.74 86.6443C134.74 79.2141 128.717 73.1908 121.287 73.1908C113.857 73.1908 107.833 79.2141 107.833 86.6443C107.833 94.0744 113.857 100.098 121.287 100.098C128.717 100.098 134.74 94.0744 134.74 86.6443Z" fill="#B8B3AF"></path>
<path d="M170.647 13.4535C170.647 6.02335 164.624 -1.90735e-06 157.194 -1.90735e-06C149.764 -1.90735e-06 143.74 6.02335 143.74 13.4535C143.74 20.8837 149.764 26.907 157.194 26.907C164.624 26.907 170.647 20.8837 170.647 13.4535Z" fill="#B8B3AF"></path>
<path d="M170.647 50.0489C170.647 42.6188 164.624 36.5954 157.194 36.5954C149.764 36.5954 143.74 42.6188 143.74 50.0489C143.74 57.4791 149.764 63.5025 157.194 63.5025C164.624 63.5025 170.647 57.4791 170.647 50.0489Z" fill="#B8B3AF"></path>
<path d="M170.647 86.6443C170.647 79.2141 164.624 73.1908 157.194 73.1908C149.764 73.1908 143.74 79.2141 143.74 86.6443C143.74 94.0744 149.764 100.098 157.194 100.098C164.624 100.098 170.647 94.0744 170.647 86.6443Z" fill="#B8B3AF"></path>
<path d="M206.554 13.4535C206.554 6.02335 200.531 -1.90735e-06 193.101 -1.90735e-06C185.671 -1.90735e-06 179.647 6.02335 179.647 13.4535C179.647 20.8837 185.671 26.907 193.101 26.907C200.531 26.907 206.554 20.8837 206.554 13.4535Z" fill="#B8B3AF"></path>
<path d="M206.554 50.0489C206.554 42.6188 200.531 36.5954 193.101 36.5954C185.671 36.5954 179.647 42.6188 179.647 50.0489C179.647 57.4791 185.671 63.5025 193.101 63.5025C200.531 63.5025 206.554 57.4791 206.554 50.0489Z" fill="#B8B3AF"></path>
<path d="M206.554 86.6443C206.554 79.2141 200.531 73.1908 193.101 73.1908C185.671 73.1908 179.647 79.2141 179.647 86.6443C179.647 94.0744 185.671 100.098 193.101 100.098C200.531 100.098 206.554 94.0744 206.554 86.6443Z" fill="#B8B3AF"></path>
<path d="M242.461 13.4535C242.461 6.02335 236.438 -1.90735e-06 229.008 -1.90735e-06C221.577 -1.90735e-06 215.554 6.02335 215.554 13.4535C215.554 20.8837 221.577 26.907 229.008 26.907C236.438 26.907 242.461 20.8837 242.461 13.4535Z" fill="#B8B3AF"></path>
<path d="M242.461 50.0489C242.461 42.6188 236.438 36.5954 229.008 36.5954C221.577 36.5954 215.554 42.6188 215.554 50.0489C215.554 57.4791 221.577 63.5025 229.008 63.5025C236.438 63.5025 242.461 57.4791 242.461 50.0489Z" fill="#B8B3AF"></path>
<path d="M242.461 86.6443C242.461 79.2141 236.438 73.1908 229.008 73.1908C221.577 73.1908 215.554 79.2141 215.554 86.6443C215.554 94.0744 221.577 100.098 229.008 100.098C236.438 100.098 242.461 94.0744 242.461 86.6443Z" fill="#B8B3AF"></path>
<path d="M278.368 13.4535C278.368 6.02335 272.345 -1.90735e-06 264.915 -1.90735e-06C257.484 -1.90735e-06 251.461 6.02335 251.461 13.4535C251.461 20.8837 257.484 26.907 264.915 26.907C272.345 26.907 278.368 20.8837 278.368 13.4535Z" fill="#B8B3AF"></path>
<path d="M278.368 50.0489C278.368 42.6188 272.345 36.5954 264.915 36.5954C257.484 36.5954 251.461 42.6188 251.461 50.0489C251.461 57.4791 257.484 63.5025 264.915 63.5025C272.345 63.5025 278.368 57.4791 278.368 50.0489Z" fill="#B8B3AF"></path>
<path d="M278.368 86.6443C278.368 79.2141 272.345 73.1908 264.915 73.1908C257.484 73.1908 251.461 79.2141 251.461 86.6443C251.461 94.0744 257.484 100.098 264.915 100.098C272.345 100.098 278.368 94.0744 278.368 86.6443Z" fill="#B8B3AF"></path>
<path d="M314.275 13.4535C314.275 6.02335 308.252 -1.90735e-06 300.822 -1.90735e-06C293.391 -1.90735e-06 287.368 6.02335 287.368 13.4535C287.368 20.8837 293.391 26.907 300.822 26.907C308.252 26.907 314.275 20.8837 314.275 13.4535Z" fill="#B8B3AF"></path>
<path d="M314.275 50.0489C314.275 42.6188 308.252 36.5954 300.822 36.5954C293.391 36.5954 287.368 42.6188 287.368 50.0489C287.368 57.4791 293.391 63.5025 300.822 63.5025C308.252 63.5025 314.275 57.4791 314.275 50.0489Z" fill="#B8B3AF"></path>
<path d="M314.275 86.6443C314.275 79.2141 308.252 73.1908 300.822 73.1908C293.391 73.1908 287.368 79.2141 287.368 86.6443C287.368 94.0744 293.391 100.098 300.822 100.098C308.252 100.098 314.275 94.0744 314.275 86.6443Z" fill="#B8B3AF"></path>
<path d="M350.182 13.4535C350.182 6.02335 344.159 -1.90735e-06 336.729 -1.90735e-06C329.298 -1.90735e-06 323.275 6.02335 323.275 13.4535C323.275 20.8837 329.298 26.907 336.729 26.907C344.159 26.907 350.182 20.8837 350.182 13.4535Z" fill="#B8B3AF"></path>
<path d="M350.182 50.0489C350.182 42.6188 344.159 36.5954 336.729 36.5954C329.298 36.5954 323.275 42.6188 323.275 50.0489C323.275 57.4791 329.298 63.5025 336.729 63.5025C344.159 63.5025 350.182 57.4791 350.182 50.0489Z" fill="#B8B3AF"></path>
<path d="M350.182 86.6443C350.182 79.2141 344.159 73.1908 336.729 73.1908C329.298 73.1908 323.275 79.2141 323.275 86.6443C323.275 94.0744 329.298 100.098 336.729 100.098C344.159 100.098 350.182 94.0744 350.182 86.6443Z" fill="#B8B3AF"></path>
<path d="M386.089 13.4535C386.089 6.02335 380.066 -1.90735e-06 372.635 -1.90735e-06C365.205 -1.90735e-06 359.182 6.02335 359.182 13.4535C359.182 20.8837 365.205 26.907 372.635 26.907C380.066 26.907 386.089 20.8837 386.089 13.4535Z" fill="#B8B3AF"></path>
<path d="M386.089 50.0489C386.089 42.6188 380.066 36.5954 372.635 36.5954C365.205 36.5954 359.182 42.6188 359.182 50.0489C359.182 57.4791 365.205 63.5025 372.635 63.5025C380.066 63.5025 386.089 57.4791 386.089 50.0489Z" fill="#B8B3AF"></path>
<path d="M386.089 86.6443C386.089 79.2141 380.066 73.1908 372.635 73.1908C365.205 73.1908 359.182 79.2141 359.182 86.6443C359.182 94.0744 365.205 100.098 372.635 100.098C380.066 100.098 386.089 94.0744 386.089 86.6443Z" fill="#B8B3AF"></path>
<path d="M421.996 14.1407C421.996 6.71055 415.973 0.687193 408.542 0.687193C401.112 0.687193 395.089 6.71055 395.089 14.1407C395.089 21.5709 401.112 27.5942 408.542 27.5942C415.973 27.5942 421.996 21.5709 421.996 14.1407Z" fill="#18C1A3"></path>
<path d="M421.996 50.0477C421.996 42.6176 415.973 36.5942 408.542 36.5942C401.112 36.5942 395.089 42.6176 395.089 50.0477C395.089 57.4779 401.112 63.5012 408.542 63.5012C415.973 63.5012 421.996 57.4779 421.996 50.0477Z" fill="#18C1A3"></path>
<path d="M421.996 85.957C421.996 78.5269 415.973 72.5035 408.542 72.5035C401.112 72.5035 395.089 78.5269 395.089 85.957C395.089 93.3872 401.112 99.4105 408.542 99.4105C415.973 99.4105 421.996 93.3872 421.996 85.957Z" fill="#B8B3AF"></path>
<path d="M421.208 83.0958L421.208 83.0961C421.872 86.4877 421.294 89.1384 420.559 90.9358C420.191 91.8362 419.783 92.5241 419.469 92.9839C419.312 93.2137 419.18 93.3862 419.088 93.4993C419.088 93.4995 419.087 93.4998 419.087 93.5H397.987C397.898 93.3797 397.773 93.1999 397.625 92.9639C397.322 92.4821 396.928 91.7677 396.571 90.848C395.856 89.0104 395.286 86.3547 395.881 83.0896C396.809 77.9947 402.024 73.0012 408.542 73.0012C415.157 73.0012 420.218 78.0259 421.208 83.0958Z" fill="#18C1A3" stroke="#18C1A3"></path>
</svg>