<svg width="100%" height="100" viewBox="0 0 422 100" fill="none" xmlns="http://www.w3.org/2000/svg">
<g clip-path="url(#clip0_895_2372)">
<path d="M26.907 13.4046C26.907 5.97449 20.8836 -0.0488701 13.4535 -0.0488701C6.02329 -0.0488701 0 5.97449 0 13.4046C0 20.8348 6.02329 26.8582 13.4535 26.8582C20.8836 26.8582 26.907 20.8348 26.907 13.4046Z" fill="#B8B3AF"/>
<path d="M26.907 50C26.907 42.5699 20.8836 36.5465 13.4535 36.5465C6.02329 36.5465 0 42.5699 0 50C0 57.4302 6.02329 63.4536 13.4535 63.4536C20.8836 63.4536 26.907 57.4302 26.907 50Z" fill="#B8B3AF"/>
<path d="M26.907 86.5954C26.907 79.1652 20.8836 73.1419 13.4535 73.1419C6.02329 73.1419 0 79.1652 0 86.5954C0 94.0255 6.02329 100.049 13.4535 100.049C20.8836 100.049 26.907 94.0255 26.907 86.5954Z" fill="#B8B3AF"/>
<path d="M62.8139 13.4046C62.8139 5.97449 56.7906 -0.0488701 49.3604 -0.0488701C41.9303 -0.0488701 35.907 5.97449 35.907 13.4046C35.907 20.8348 41.9303 26.8582 49.3604 26.8582C56.7906 26.8582 62.8139 20.8348 62.8139 13.4046Z" fill="#B8B3AF"/>
<path d="M62.8139 50C62.8139 42.5699 56.7906 36.5465 49.3604 36.5465C41.9303 36.5465 35.907 42.5699 35.907 50C35.907 57.4302 41.9303 63.4536 49.3604 63.4536C56.7906 63.4536 62.8139 57.4302 62.8139 50Z" fill="#B8B3AF"/>
<path d="M62.8139 86.5954C62.8139 79.1652 56.7906 73.1419 49.3604 73.1419C41.9303 73.1419 35.907 79.1652 35.907 86.5954C35.907 94.0255 41.9303 100.049 49.3604 100.049C56.7906 100.049 62.8139 94.0255 62.8139 86.5954Z" fill="#B8B3AF"/>
<path d="M98.7209 13.4046C98.7209 5.97449 92.6976 -0.0488701 85.2674 -0.0488701C77.8373 -0.0488701 71.814 5.97449 71.814 13.4046C71.814 20.8348 77.8373 26.8582 85.2674 26.8582C92.6976 26.8582 98.7209 20.8348 98.7209 13.4046Z" fill="#B8B3AF"/>
<path d="M98.7209 50C98.7209 42.5699 92.6976 36.5465 85.2674 36.5465C77.8373 36.5465 71.814 42.5699 71.814 50C71.814 57.4302 77.8373 63.4536 85.2674 63.4536C92.6976 63.4536 98.7209 57.4302 98.7209 50Z" fill="#B8B3AF"/>
<path d="M98.7209 86.5954C98.7209 79.1652 92.6976 73.1419 85.2674 73.1419C77.8373 73.1419 71.814 79.1652 71.814 86.5954C71.814 94.0255 77.8373 100.049 85.2674 100.049C92.6976 100.049 98.7209 94.0255 98.7209 86.5954Z" fill="#B8B3AF"/>
<path d="M134.628 13.4046C134.628 5.97449 128.605 -0.0488701 121.174 -0.0488701C113.744 -0.0488701 107.721 5.97449 107.721 13.4046C107.721 20.8348 113.744 26.8582 121.174 26.8582C128.605 26.8582 134.628 20.8348 134.628 13.4046Z" fill="#182C4F"/>
<path d="M134.628 50C134.628 42.5699 128.605 36.5465 121.174 36.5465C113.744 36.5465 107.721 42.5699 107.721 50C107.721 57.4302 113.744 63.4536 121.174 63.4536C128.605 63.4536 134.628 57.4302 134.628 50Z" fill="#182C4F"/>
<path d="M134.628 86.5954C134.628 79.1652 128.605 73.1419 121.174 73.1419C113.744 73.1419 107.721 79.1652 107.721 86.5954C107.721 94.0255 113.744 100.049 121.174 100.049C128.605 100.049 134.628 94.0255 134.628 86.5954Z" fill="#B8B3AF"/>
<path d="M170.535 13.4046C170.535 5.97449 164.512 -0.0488701 157.081 -0.0488701C149.651 -0.0488701 143.628 5.97449 143.628 13.4046C143.628 20.8348 149.651 26.8582 157.081 26.8582C164.512 26.8582 170.535 20.8348 170.535 13.4046Z" fill="#182C4F"/>
<path d="M170.535 50C170.535 42.5699 164.512 36.5465 157.081 36.5465C149.651 36.5465 143.628 42.5699 143.628 50C143.628 57.4302 149.651 63.4536 157.081 63.4536C164.512 63.4536 170.535 57.4302 170.535 50Z" fill="#182C4F"/>
<path d="M170.535 86.5954C170.535 79.1652 164.512 73.1419 157.081 73.1419C149.651 73.1419 143.628 79.1652 143.628 86.5954C143.628 94.0255 149.651 100.049 157.081 100.049C164.512 100.049 170.535 94.0255 170.535 86.5954Z" fill="#182C4F"/>
<path d="M206.442 13.4046C206.442 5.97449 200.419 -0.0488701 192.988 -0.0488701C185.558 -0.0488701 179.535 5.97449 179.535 13.4046C179.535 20.8348 185.558 26.8582 192.988 26.8582C200.419 26.8582 206.442 20.8348 206.442 13.4046Z" fill="#182C4F"/>
<path d="M206.442 50C206.442 42.5699 200.419 36.5465 192.988 36.5465C185.558 36.5465 179.535 42.5699 179.535 50C179.535 57.4302 185.558 63.4536 192.988 63.4536C200.419 63.4536 206.442 57.4302 206.442 50Z" fill="#182C4F"/>
<path d="M206.442 86.5954C206.442 79.1652 200.419 73.1419 192.988 73.1419C185.558 73.1419 179.535 79.1652 179.535 86.5954C179.535 94.0255 185.558 100.049 192.988 100.049C200.419 100.049 206.442 94.0255 206.442 86.5954Z" fill="#182C4F"/>
<path d="M242.349 13.4046C242.349 5.97449 236.326 -0.0488701 228.895 -0.0488701C221.465 -0.0488701 215.442 5.97449 215.442 13.4046C215.442 20.8348 221.465 26.8582 228.895 26.8582C236.326 26.8582 242.349 20.8348 242.349 13.4046Z" fill="#182C4F"/>
<path d="M242.349 50C242.349 42.5699 236.326 36.5465 228.895 36.5465C221.465 36.5465 215.442 42.5699 215.442 50C215.442 57.4302 221.465 63.4536 228.895 63.4536C236.326 63.4536 242.349 57.4302 242.349 50Z" fill="#182C4F"/>
<path d="M242.349 86.5954C242.349 79.1652 236.326 73.1419 228.895 73.1419C221.465 73.1419 215.442 79.1652 215.442 86.5954C215.442 94.0255 221.465 100.049 228.895 100.049C236.326 100.049 242.349 94.0255 242.349 86.5954Z" fill="#182C4F"/>
<path d="M278.256 13.4046C278.256 5.97449 272.232 -0.0488701 264.802 -0.0488701C257.372 -0.0488701 251.349 5.97449 251.349 13.4046C251.349 20.8348 257.372 26.8582 264.802 26.8582C272.232 26.8582 278.256 20.8348 278.256 13.4046Z" fill="#182C4F"/>
<path d="M278.256 50C278.256 42.5699 272.232 36.5465 264.802 36.5465C257.372 36.5465 251.349 42.5699 251.349 50C251.349 57.4302 257.372 63.4536 264.802 63.4536C272.232 63.4536 278.256 57.4302 278.256 50Z" fill="#182C4F"/>
<path d="M278.256 86.5954C278.256 79.1652 272.232 73.1419 264.802 73.1419C257.372 73.1419 251.349 79.1652 251.349 86.5954C251.349 94.0255 257.372 100.049 264.802 100.049C272.232 100.049 278.256 94.0255 278.256 86.5954Z" fill="#182C4F"/>
<path d="M314.163 13.4046C314.163 5.97449 308.139 -0.0488701 300.709 -0.0488701C293.279 -0.0488701 287.256 5.97449 287.256 13.4046C287.256 20.8348 293.279 26.8582 300.709 26.8582C308.139 26.8582 314.163 20.8348 314.163 13.4046Z" fill="#182C4F"/>
<path d="M314.163 50C314.163 42.5699 308.139 36.5465 300.709 36.5465C293.279 36.5465 287.256 42.5699 287.256 50C287.256 57.4302 293.279 63.4536 300.709 63.4536C308.139 63.4536 314.163 57.4302 314.163 50Z" fill="#182C4F"/>
<path d="M314.163 86.5954C314.163 79.1652 308.139 73.1419 300.709 73.1419C293.279 73.1419 287.256 79.1652 287.256 86.5954C287.256 94.0255 293.279 100.049 300.709 100.049C308.139 100.049 314.163 94.0255 314.163 86.5954Z" fill="#182C4F"/>
<path d="M350.07 13.4046C350.07 5.97449 344.046 -0.0488701 336.616 -0.0488701C329.186 -0.0488701 323.163 5.97449 323.163 13.4046C323.163 20.8348 329.186 26.8582 336.616 26.8582C344.046 26.8582 350.07 20.8348 350.07 13.4046Z" fill="#182C4F"/>
<path d="M350.07 50C350.07 42.5699 344.046 36.5465 336.616 36.5465C329.186 36.5465 323.163 42.5699 323.163 50C323.163 57.4302 329.186 63.4536 336.616 63.4536C344.046 63.4536 350.07 57.4302 350.07 50Z" fill="#182C4F"/>
<path d="M350.07 86.5954C350.07 79.1652 344.046 73.1419 336.616 73.1419C329.186 73.1419 323.163 79.1652 323.163 86.5954C323.163 94.0255 329.186 100.049 336.616 100.049C344.046 100.049 350.07 94.0255 350.07 86.5954Z" fill="#182C4F"/>
<path d="M385.977 13.4046C385.977 5.97449 379.953 -0.0488701 372.523 -0.0488701C365.093 -0.0488701 359.07 5.97449 359.07 13.4046C359.07 20.8348 365.093 26.8582 372.523 26.8582C379.953 26.8582 385.977 20.8348 385.977 13.4046Z" fill="#182C4F"/>
<path d="M385.977 50C385.977 42.5699 379.953 36.5465 372.523 36.5465C365.093 36.5465 359.07 42.5699 359.07 50C359.07 57.4302 365.093 63.4536 372.523 63.4536C379.953 63.4536 385.977 57.4302 385.977 50Z" fill="#182C4F"/>
<path d="M385.977 86.5954C385.977 79.1652 379.953 73.1419 372.523 73.1419C365.093 73.1419 359.07 79.1652 359.07 86.5954C359.07 94.0255 365.093 100.049 372.523 100.049C379.953 100.049 385.977 94.0255 385.977 86.5954Z" fill="#182C4F"/>
<path d="M421.884 14.093C421.884 6.66284 415.86 0.639484 408.43 0.639484C401 0.639484 394.977 6.66284 394.977 14.093C394.977 21.5232 401 27.5465 408.43 27.5465C415.86 27.5465 421.884 21.5232 421.884 14.093Z" fill="#182C4F"/>
<path d="M421.884 50C421.884 42.5698 415.86 36.5465 408.43 36.5465C401 36.5465 394.977 42.5698 394.977 50C394.977 57.4301 401 63.4535 408.43 63.4535C415.86 63.4535 421.884 57.4301 421.884 50Z" fill="#182C4F"/>
<path d="M421.884 85.907C421.884 78.4769 415.86 72.4535 408.43 72.4535C401 72.4535 394.977 78.4769 394.977 85.907C394.977 93.3372 401 99.3605 408.43 99.3605C415.86 99.3605 421.884 93.3372 421.884 85.907Z" fill="#182C4F"/>
</g>
<defs>
<clipPath id="clip0_895_2372">
<rect width="100" height="421.884" fill="white" transform="matrix(0 1 1 0 0 0)"/>
</clipPath>
</defs>
</svg>
