<svg width="100%" height="101" viewBox="0 0 423 101" fill="none" xmlns="http://www.w3.org/2000/svg"><path d="M27.811 13.551c0-7.43-6.023-13.453-13.453-13.453S.905 6.12.905 13.55s6.023 13.454 13.453 13.454S27.811 20.98 27.811 13.55ZM27.811 50.147c0-7.43-6.023-13.454-13.453-13.454S.905 42.717.905 50.147c0 7.43 6.023 13.453 13.453 13.453s13.453-6.023 13.453-13.453ZM27.811 86.742c0-7.43-6.023-13.454-13.453-13.454S.905 79.313.905 86.743c0 7.43 6.023 13.453 13.453 13.453s13.453-6.023 13.453-13.453ZM63.718 13.551c0-7.43-6.023-13.453-13.453-13.453S36.812 6.12 36.812 13.55s6.023 13.454 13.453 13.454S63.718 20.98 63.718 13.55ZM63.718 50.147c0-7.43-6.023-13.454-13.453-13.454S36.81 42.717 36.81 50.147c0 7.43 6.024 13.453 13.454 13.453 7.43 0 13.453-6.023 13.453-13.453ZM63.718 86.742c0-7.43-6.023-13.454-13.453-13.454S36.81 79.313 36.81 86.743c0 7.43 6.024 13.453 13.454 13.453 7.43 0 13.453-6.023 13.453-13.453ZM99.625 13.551c0-7.43-6.023-13.453-13.453-13.453S72.719 6.12 72.719 13.55s6.023 13.454 13.453 13.454S99.625 20.98 99.625 13.55ZM99.625 50.147c0-7.43-6.023-13.454-13.453-13.454s-13.454 6.024-13.454 13.454c0 7.43 6.024 13.453 13.454 13.453 7.43 0 13.453-6.023 13.453-13.453ZM99.625 86.742c0-7.43-6.023-13.454-13.453-13.454s-13.454 6.024-13.454 13.454c0 7.43 6.024 13.453 13.454 13.453 7.43 0 13.453-6.023 13.453-13.453Z" fill="#B8B3AF"></path><path d="M135.532 13.551c0-7.43-6.023-13.453-13.453-13.453S108.625 6.12 108.625 13.55s6.024 13.454 13.454 13.454c7.43 0 13.453-6.024 13.453-13.454ZM135.532 50.147c0-7.43-6.023-13.454-13.453-13.454s-13.454 6.024-13.454 13.454c0 7.43 6.024 13.453 13.454 13.453 7.43 0 13.453-6.023 13.453-13.453Z" fill="#182C4F"></path><path d="M135.532 86.742c0-7.43-6.023-13.454-13.453-13.454s-13.454 6.024-13.454 13.454c0 7.43 6.024 13.453 13.454 13.453 7.43 0 13.453-6.023 13.453-13.453Z" fill="#B8B3AF"></path><path d="M171.439 13.551c0-7.43-6.023-13.453-13.453-13.453S144.532 6.12 144.532 13.55s6.024 13.454 13.454 13.454c7.43 0 13.453-6.024 13.453-13.454ZM171.439 50.147c0-7.43-6.023-13.454-13.453-13.454s-13.454 6.024-13.454 13.454c0 7.43 6.024 13.453 13.454 13.453 7.43 0 13.453-6.023 13.453-13.453ZM171.439 86.742c0-7.43-6.023-13.454-13.453-13.454s-13.454 6.024-13.454 13.454c0 7.43 6.024 13.453 13.454 13.453 7.43 0 13.453-6.023 13.453-13.453ZM207.346 13.551c0-7.43-6.023-13.453-13.453-13.453S180.439 6.12 180.439 13.55s6.024 13.454 13.454 13.454c7.43 0 13.453-6.024 13.453-13.454ZM207.346 50.147c0-7.43-6.023-13.454-13.453-13.454s-13.454 6.024-13.454 13.454c0 7.43 6.024 13.453 13.454 13.453 7.43 0 13.453-6.023 13.453-13.453ZM207.346 86.742c0-7.43-6.023-13.454-13.453-13.454s-13.454 6.024-13.454 13.454c0 7.43 6.024 13.453 13.454 13.453 7.43 0 13.453-6.023 13.453-13.453ZM243.253 13.551c0-7.43-6.023-13.453-13.453-13.453S216.346 6.12 216.346 13.55s6.024 13.454 13.454 13.454c7.43 0 13.453-6.024 13.453-13.454ZM243.253 50.147c0-7.43-6.023-13.454-13.453-13.454s-13.454 6.024-13.454 13.454c0 7.43 6.024 13.453 13.454 13.453 7.43 0 13.453-6.023 13.453-13.453ZM243.253 86.742c0-7.43-6.023-13.454-13.453-13.454s-13.454 6.024-13.454 13.454c0 7.43 6.024 13.453 13.454 13.453 7.43 0 13.453-6.023 13.453-13.453ZM279.16 13.551c0-7.43-6.023-13.453-13.453-13.453S252.253 6.12 252.253 13.55s6.024 13.454 13.454 13.454c7.43 0 13.453-6.024 13.453-13.454ZM279.16 50.147c0-7.43-6.023-13.454-13.453-13.454s-13.454 6.024-13.454 13.454c0 7.43 6.024 13.453 13.454 13.453 7.43 0 13.453-6.023 13.453-13.453ZM279.16 86.742c0-7.43-6.023-13.454-13.453-13.454s-13.454 6.024-13.454 13.454c0 7.43 6.024 13.453 13.454 13.453 7.43 0 13.453-6.023 13.453-13.453ZM315.067 13.551c0-7.43-6.023-13.453-13.453-13.453S288.16 6.12 288.16 13.55s6.024 13.454 13.454 13.454c7.43 0 13.453-6.024 13.453-13.454ZM315.067 50.147c0-7.43-6.023-13.454-13.453-13.454s-13.454 6.024-13.454 13.454c0 7.43 6.024 13.453 13.454 13.453 7.43 0 13.453-6.023 13.453-13.453ZM315.067 86.742c0-7.43-6.023-13.454-13.453-13.454s-13.454 6.024-13.454 13.454c0 7.43 6.024 13.453 13.454 13.453 7.43 0 13.453-6.023 13.453-13.453ZM350.974 13.551c0-7.43-6.023-13.453-13.453-13.453-7.431 0-13.454 6.023-13.454 13.453s6.023 13.454 13.454 13.454c7.43 0 13.453-6.024 13.453-13.454ZM350.974 50.147c0-7.43-6.023-13.454-13.453-13.454-7.431 0-13.454 6.024-13.454 13.454 0 7.43 6.023 13.453 13.454 13.453 7.43 0 13.453-6.023 13.453-13.453ZM350.974 86.742c0-7.43-6.023-13.454-13.453-13.454-7.431 0-13.454 6.024-13.454 13.454 0 7.43 6.023 13.453 13.454 13.453 7.43 0 13.453-6.023 13.453-13.453ZM386.881 13.551c0-7.43-6.023-13.453-13.453-13.453-7.431 0-13.454 6.023-13.454 13.453s6.023 13.454 13.454 13.454c7.43 0 13.453-6.024 13.453-13.454ZM386.881 50.147c0-7.43-6.023-13.454-13.453-13.454-7.431 0-13.454 6.024-13.454 13.454 0 7.43 6.023 13.453 13.454 13.453 7.43 0 13.453-6.023 13.453-13.453ZM386.881 86.742c0-7.43-6.023-13.454-13.453-13.454-7.431 0-13.454 6.024-13.454 13.454 0 7.43 6.023 13.453 13.454 13.453 7.43 0 13.453-6.023 13.453-13.453ZM422.788 14.24c0-7.43-6.023-13.454-13.453-13.454-7.431 0-13.454 6.023-13.454 13.454 0 7.43 6.023 13.453 13.454 13.453 7.43 0 13.453-6.023 13.453-13.453ZM422.788 50.147c0-7.43-6.023-13.454-13.453-13.454-7.431 0-13.454 6.023-13.454 13.454 0 7.43 6.023 13.453 13.454 13.453 7.43 0 13.453-6.023 13.453-13.453ZM422.788 86.054c0-7.43-6.023-13.454-13.453-13.454-7.431 0-13.454 6.024-13.454 13.454 0 7.43 6.023 13.453 13.454 13.453 7.43 0 13.453-6.023 13.453-13.453Z" fill="#182C4F"></path></svg>