<svg width="100%" height="101" viewBox="0 0 458 101" fill="none" xmlns="http://www.w3.org/2000/svg">
<path d="M26.907 13.4535C26.907 6.02337 20.8836 1.90735e-05 13.4535 1.90735e-05C6.02329 1.90735e-05 0 6.02337 0 13.4535C0 20.8837 6.02329 26.907 13.4535 26.907C20.8836 26.907 26.907 20.8837 26.907 13.4535Z" fill="#182C4F"/>
<path d="M26.907 50.0489C26.907 42.6188 20.8836 36.5954 13.4535 36.5954C6.02329 36.5954 0 42.6188 0 50.0489C0 57.4791 6.02329 63.5024 13.4535 63.5024C20.8836 63.5024 26.907 57.4791 26.907 50.0489Z" fill="#182C4F"/>
<path d="M26.907 86.6443C26.907 79.2141 20.8836 73.1908 13.4535 73.1908C6.02329 73.1908 0 79.2141 0 86.6443C0 94.0744 6.02329 100.098 13.4535 100.098C20.8836 100.098 26.907 94.0744 26.907 86.6443Z" fill="#182C4F"/>
<path d="M62.8139 13.4535C62.8139 6.02337 56.7906 1.90735e-05 49.3604 1.90735e-05C41.9303 1.90735e-05 35.907 6.02337 35.907 13.4535C35.907 20.8837 41.9303 26.907 49.3604 26.907C56.7906 26.907 62.8139 20.8837 62.8139 13.4535Z" fill="#182C4F"/>
<path d="M62.8139 50.0489C62.8139 42.6188 56.7906 36.5954 49.3604 36.5954C41.9303 36.5954 35.907 42.6188 35.907 50.0489C35.907 57.4791 41.9303 63.5024 49.3604 63.5024C56.7906 63.5024 62.8139 57.4791 62.8139 50.0489Z" fill="#182C4F"/>
<path d="M62.8139 86.6443C62.8139 79.2141 56.7906 73.1908 49.3604 73.1908C41.9303 73.1908 35.907 79.2141 35.907 86.6443C35.907 94.0744 41.9303 100.098 49.3604 100.098C56.7906 100.098 62.8139 94.0744 62.8139 86.6443Z" fill="#182C4F"/>
<path d="M98.7209 13.4535C98.7209 6.02337 92.6976 1.90735e-05 85.2674 1.90735e-05C77.8373 1.90735e-05 71.814 6.02337 71.814 13.4535C71.814 20.8837 77.8373 26.907 85.2674 26.907C92.6976 26.907 98.7209 20.8837 98.7209 13.4535Z" fill="#182C4F"/>
<path d="M98.7209 50.0489C98.7209 42.6188 92.6976 36.5954 85.2674 36.5954C77.8373 36.5954 71.814 42.6188 71.814 50.0489C71.814 57.4791 77.8373 63.5024 85.2674 63.5024C92.6976 63.5024 98.7209 57.4791 98.7209 50.0489Z" fill="#182C4F"/>
<path d="M98.7209 86.6443C98.7209 79.2141 92.6976 73.1908 85.2674 73.1908C77.8373 73.1908 71.814 79.2141 71.814 86.6443C71.814 94.0744 77.8373 100.098 85.2674 100.098C92.6976 100.098 98.7209 94.0744 98.7209 86.6443Z" fill="#182C4F"/>
<path d="M134.628 13.4535C134.628 6.02337 128.605 1.90735e-05 121.174 1.90735e-05C113.744 1.90735e-05 107.721 6.02337 107.721 13.4535C107.721 20.8837 113.744 26.907 121.174 26.907C128.605 26.907 134.628 20.8837 134.628 13.4535Z" fill="#182C4F"/>
<path d="M134.628 50.0489C134.628 42.6188 128.605 36.5954 121.174 36.5954C113.744 36.5954 107.721 42.6188 107.721 50.0489C107.721 57.4791 113.744 63.5024 121.174 63.5024C128.605 63.5024 134.628 57.4791 134.628 50.0489Z" fill="#182C4F"/>
<path d="M134.628 86.6443C134.628 79.2141 128.605 73.1908 121.174 73.1908C113.744 73.1908 107.721 79.2141 107.721 86.6443C107.721 94.0744 113.744 100.098 121.174 100.098C128.605 100.098 134.628 94.0744 134.628 86.6443Z" fill="#182C4F"/>
<path d="M170.535 13.4535C170.535 6.02337 164.512 1.90735e-05 157.081 1.90735e-05C149.651 1.90735e-05 143.628 6.02337 143.628 13.4535C143.628 20.8837 149.651 26.907 157.081 26.907C164.512 26.907 170.535 20.8837 170.535 13.4535Z" fill="#182C4F"/>
<path d="M170.535 50.0489C170.535 42.6188 164.512 36.5954 157.081 36.5954C149.651 36.5954 143.628 42.6188 143.628 50.0489C143.628 57.4791 149.651 63.5024 157.081 63.5024C164.512 63.5024 170.535 57.4791 170.535 50.0489Z" fill="#182C4F"/>
<path d="M170.535 86.6443C170.535 79.2141 164.512 73.1908 157.081 73.1908C149.651 73.1908 143.628 79.2141 143.628 86.6443C143.628 94.0744 149.651 100.098 157.081 100.098C164.512 100.098 170.535 94.0744 170.535 86.6443Z" fill="#182C4F"/>
<path d="M206.442 13.4535C206.442 6.02337 200.419 1.90735e-05 192.988 1.90735e-05C185.558 1.90735e-05 179.535 6.02337 179.535 13.4535C179.535 20.8837 185.558 26.907 192.988 26.907C200.419 26.907 206.442 20.8837 206.442 13.4535Z" fill="#182C4F"/>
<path d="M206.442 50.0489C206.442 42.6188 200.419 36.5954 192.988 36.5954C185.558 36.5954 179.535 42.6188 179.535 50.0489C179.535 57.4791 185.558 63.5024 192.988 63.5024C200.419 63.5024 206.442 57.4791 206.442 50.0489Z" fill="#182C4F"/>
<path d="M206.442 86.6443C206.442 79.2141 200.419 73.1908 192.988 73.1908C185.558 73.1908 179.535 79.2141 179.535 86.6443C179.535 94.0744 185.558 100.098 192.988 100.098C200.419 100.098 206.442 94.0744 206.442 86.6443Z" fill="#182C4F"/>
<path d="M242.349 13.4535C242.349 6.02337 236.326 1.90735e-05 228.895 1.90735e-05C221.465 1.90735e-05 215.442 6.02337 215.442 13.4535C215.442 20.8837 221.465 26.907 228.895 26.907C236.326 26.907 242.349 20.8837 242.349 13.4535Z" fill="#182C4F"/>
<path d="M242.349 50.0489C242.349 42.6188 236.326 36.5954 228.895 36.5954C221.465 36.5954 215.442 42.6188 215.442 50.0489C215.442 57.4791 221.465 63.5024 228.895 63.5024C236.326 63.5024 242.349 57.4791 242.349 50.0489Z" fill="#182C4F"/>
<path d="M242.349 86.6443C242.349 79.2141 236.326 73.1908 228.895 73.1908C221.465 73.1908 215.442 79.2141 215.442 86.6443C215.442 94.0744 221.465 100.098 228.895 100.098C236.326 100.098 242.349 94.0744 242.349 86.6443Z" fill="#182C4F"/>
<path d="M278.256 13.4535C278.256 6.02337 272.232 1.90735e-05 264.802 1.90735e-05C257.372 1.90735e-05 251.349 6.02337 251.349 13.4535C251.349 20.8837 257.372 26.907 264.802 26.907C272.232 26.907 278.256 20.8837 278.256 13.4535Z" fill="#182C4F"/>
<path d="M278.256 50.0489C278.256 42.6188 272.232 36.5954 264.802 36.5954C257.372 36.5954 251.349 42.6188 251.349 50.0489C251.349 57.4791 257.372 63.5024 264.802 63.5024C272.232 63.5024 278.256 57.4791 278.256 50.0489Z" fill="#182C4F"/>
<path d="M278.256 86.6443C278.256 79.2141 272.232 73.1908 264.802 73.1908C257.372 73.1908 251.349 79.2141 251.349 86.6443C251.349 94.0744 257.372 100.098 264.802 100.098C272.232 100.098 278.256 94.0744 278.256 86.6443Z" fill="#182C4F"/>
<path d="M314.163 13.4535C314.163 6.02337 308.139 1.90735e-05 300.709 1.90735e-05C293.279 1.90735e-05 287.256 6.02337 287.256 13.4535C287.256 20.8837 293.279 26.907 300.709 26.907C308.139 26.907 314.163 20.8837 314.163 13.4535Z" fill="#182C4F"/>
<path d="M314.163 50.0489C314.163 42.6188 308.139 36.5954 300.709 36.5954C293.279 36.5954 287.256 42.6188 287.256 50.0489C287.256 57.4791 293.279 63.5024 300.709 63.5024C308.139 63.5024 314.163 57.4791 314.163 50.0489Z" fill="#182C4F"/>
<path d="M314.163 86.6443C314.163 79.2141 308.139 73.1908 300.709 73.1908C293.279 73.1908 287.256 79.2141 287.256 86.6443C287.256 94.0744 293.279 100.098 300.709 100.098C308.139 100.098 314.163 94.0744 314.163 86.6443Z" fill="#182C4F"/>
<path d="M350.07 13.4535C350.07 6.02337 344.046 1.90735e-05 336.616 1.90735e-05C329.186 1.90735e-05 323.163 6.02337 323.163 13.4535C323.163 20.8837 329.186 26.907 336.616 26.907C344.046 26.907 350.07 20.8837 350.07 13.4535Z" fill="#182C4F"/>
<path d="M350.07 50.0489C350.07 42.6188 344.046 36.5954 336.616 36.5954C329.186 36.5954 323.163 42.6188 323.163 50.0489C323.163 57.4791 329.186 63.5024 336.616 63.5024C344.046 63.5024 350.07 57.4791 350.07 50.0489Z" fill="#182C4F"/>
<path d="M350.07 86.6443C350.07 79.2141 344.046 73.1908 336.616 73.1908C329.186 73.1908 323.163 79.2141 323.163 86.6443C323.163 94.0744 329.186 100.098 336.616 100.098C344.046 100.098 350.07 94.0744 350.07 86.6443Z" fill="#182C4F"/>
<path d="M385.977 13.4535C385.977 6.02337 379.953 1.90735e-05 372.523 1.90735e-05C365.093 1.90735e-05 359.07 6.02337 359.07 13.4535C359.07 20.8837 365.093 26.907 372.523 26.907C379.953 26.907 385.977 20.8837 385.977 13.4535Z" fill="#182C4F"/>
<path d="M385.977 50.0489C385.977 42.6188 379.953 36.5954 372.523 36.5954C365.093 36.5954 359.07 42.6188 359.07 50.0489C359.07 57.4791 365.093 63.5024 372.523 63.5024C379.953 63.5024 385.977 57.4791 385.977 50.0489Z" fill="#182C4F"/>
<path d="M385.977 86.6443C385.977 79.2141 379.953 73.1908 372.523 73.1908C365.093 73.1908 359.07 79.2141 359.07 86.6443C359.07 94.0744 365.093 100.098 372.523 100.098C379.953 100.098 385.977 94.0744 385.977 86.6443Z" fill="#182C4F"/>
<path d="M421.884 14.1419C421.884 6.71173 415.86 0.688374 408.43 0.688374C401 0.688374 394.977 6.71173 394.977 14.1419C394.977 21.572 401 27.5954 408.43 27.5954C415.86 27.5954 421.884 21.572 421.884 14.1419Z" fill="#182C4F"/>
<path d="M421.884 50.0489C421.884 42.6187 415.86 36.5954 408.43 36.5954C401 36.5954 394.977 42.6187 394.977 50.0489C394.977 57.479 401 63.5024 408.43 63.5024C415.86 63.5024 421.884 57.479 421.884 50.0489Z" fill="#182C4F"/>
<path d="M421.884 85.9559C421.884 78.5258 415.86 72.5024 408.43 72.5024C401 72.5024 394.977 78.5258 394.977 85.9559C394.977 93.3861 401 99.4094 408.43 99.4094C415.86 99.4094 421.884 93.3861 421.884 85.9559Z" fill="#182C4F"/>
<path d="M457.791 32.0954C457.791 24.6652 451.767 18.6419 444.337 18.6419C436.907 18.6419 430.884 24.6652 430.884 32.0954C430.884 39.5255 436.907 45.5489 444.337 45.5489C451.767 45.5489 457.791 39.5255 457.791 32.0954Z" fill="#B8B3AF"/>
<path d="M457.791 68.0024C457.791 60.5722 451.767 54.5488 444.337 54.5488C436.907 54.5488 430.884 60.5722 430.884 68.0024C430.884 75.4325 436.907 81.4559 444.337 81.4559C451.767 81.4559 457.791 75.4325 457.791 68.0024Z" fill="#B8B3AF"/>
</svg>
<svg width="458" height="101" viewBox="0 0 458 101" fill="none" xmlns="http://www.w3.org/2000/svg">
<path d="M26.907 13.4535C26.907 6.02337 20.8836 1.90735e-05 13.4535 1.90735e-05C6.02329 1.90735e-05 0 6.02337 0 13.4535C0 20.8837 6.02329 26.907 13.4535 26.907C20.8836 26.907 26.907 20.8837 26.907 13.4535Z" fill="#182C4F"/>
<path d="M26.907 50.0489C26.907 42.6188 20.8836 36.5954 13.4535 36.5954C6.02329 36.5954 0 42.6188 0 50.0489C0 57.4791 6.02329 63.5024 13.4535 63.5024C20.8836 63.5024 26.907 57.4791 26.907 50.0489Z" fill="#182C4F"/>
<path d="M26.907 86.6443C26.907 79.2141 20.8836 73.1908 13.4535 73.1908C6.02329 73.1908 0 79.2141 0 86.6443C0 94.0744 6.02329 100.098 13.4535 100.098C20.8836 100.098 26.907 94.0744 26.907 86.6443Z" fill="#182C4F"/>
<path d="M62.8139 13.4535C62.8139 6.02337 56.7906 1.90735e-05 49.3604 1.90735e-05C41.9303 1.90735e-05 35.907 6.02337 35.907 13.4535C35.907 20.8837 41.9303 26.907 49.3604 26.907C56.7906 26.907 62.8139 20.8837 62.8139 13.4535Z" fill="#182C4F"/>
<path d="M62.8139 50.0489C62.8139 42.6188 56.7906 36.5954 49.3604 36.5954C41.9303 36.5954 35.907 42.6188 35.907 50.0489C35.907 57.4791 41.9303 63.5024 49.3604 63.5024C56.7906 63.5024 62.8139 57.4791 62.8139 50.0489Z" fill="#182C4F"/>
<path d="M62.8139 86.6443C62.8139 79.2141 56.7906 73.1908 49.3604 73.1908C41.9303 73.1908 35.907 79.2141 35.907 86.6443C35.907 94.0744 41.9303 100.098 49.3604 100.098C56.7906 100.098 62.8139 94.0744 62.8139 86.6443Z" fill="#182C4F"/>
<path d="M98.7209 13.4535C98.7209 6.02337 92.6976 1.90735e-05 85.2674 1.90735e-05C77.8373 1.90735e-05 71.814 6.02337 71.814 13.4535C71.814 20.8837 77.8373 26.907 85.2674 26.907C92.6976 26.907 98.7209 20.8837 98.7209 13.4535Z" fill="#182C4F"/>
<path d="M98.7209 50.0489C98.7209 42.6188 92.6976 36.5954 85.2674 36.5954C77.8373 36.5954 71.814 42.6188 71.814 50.0489C71.814 57.4791 77.8373 63.5024 85.2674 63.5024C92.6976 63.5024 98.7209 57.4791 98.7209 50.0489Z" fill="#182C4F"/>
<path d="M98.7209 86.6443C98.7209 79.2141 92.6976 73.1908 85.2674 73.1908C77.8373 73.1908 71.814 79.2141 71.814 86.6443C71.814 94.0744 77.8373 100.098 85.2674 100.098C92.6976 100.098 98.7209 94.0744 98.7209 86.6443Z" fill="#182C4F"/>
<path d="M134.628 13.4535C134.628 6.02337 128.605 1.90735e-05 121.174 1.90735e-05C113.744 1.90735e-05 107.721 6.02337 107.721 13.4535C107.721 20.8837 113.744 26.907 121.174 26.907C128.605 26.907 134.628 20.8837 134.628 13.4535Z" fill="#182C4F"/>
<path d="M134.628 50.0489C134.628 42.6188 128.605 36.5954 121.174 36.5954C113.744 36.5954 107.721 42.6188 107.721 50.0489C107.721 57.4791 113.744 63.5024 121.174 63.5024C128.605 63.5024 134.628 57.4791 134.628 50.0489Z" fill="#182C4F"/>
<path d="M134.628 86.6443C134.628 79.2141 128.605 73.1908 121.174 73.1908C113.744 73.1908 107.721 79.2141 107.721 86.6443C107.721 94.0744 113.744 100.098 121.174 100.098C128.605 100.098 134.628 94.0744 134.628 86.6443Z" fill="#182C4F"/>
<path d="M170.535 13.4535C170.535 6.02337 164.512 1.90735e-05 157.081 1.90735e-05C149.651 1.90735e-05 143.628 6.02337 143.628 13.4535C143.628 20.8837 149.651 26.907 157.081 26.907C164.512 26.907 170.535 20.8837 170.535 13.4535Z" fill="#182C4F"/>
<path d="M170.535 50.0489C170.535 42.6188 164.512 36.5954 157.081 36.5954C149.651 36.5954 143.628 42.6188 143.628 50.0489C143.628 57.4791 149.651 63.5024 157.081 63.5024C164.512 63.5024 170.535 57.4791 170.535 50.0489Z" fill="#182C4F"/>
<path d="M170.535 86.6443C170.535 79.2141 164.512 73.1908 157.081 73.1908C149.651 73.1908 143.628 79.2141 143.628 86.6443C143.628 94.0744 149.651 100.098 157.081 100.098C164.512 100.098 170.535 94.0744 170.535 86.6443Z" fill="#182C4F"/>
<path d="M206.442 13.4535C206.442 6.02337 200.419 1.90735e-05 192.988 1.90735e-05C185.558 1.90735e-05 179.535 6.02337 179.535 13.4535C179.535 20.8837 185.558 26.907 192.988 26.907C200.419 26.907 206.442 20.8837 206.442 13.4535Z" fill="#182C4F"/>
<path d="M206.442 50.0489C206.442 42.6188 200.419 36.5954 192.988 36.5954C185.558 36.5954 179.535 42.6188 179.535 50.0489C179.535 57.4791 185.558 63.5024 192.988 63.5024C200.419 63.5024 206.442 57.4791 206.442 50.0489Z" fill="#182C4F"/>
<path d="M206.442 86.6443C206.442 79.2141 200.419 73.1908 192.988 73.1908C185.558 73.1908 179.535 79.2141 179.535 86.6443C179.535 94.0744 185.558 100.098 192.988 100.098C200.419 100.098 206.442 94.0744 206.442 86.6443Z" fill="#182C4F"/>
<path d="M242.349 13.4535C242.349 6.02337 236.326 1.90735e-05 228.895 1.90735e-05C221.465 1.90735e-05 215.442 6.02337 215.442 13.4535C215.442 20.8837 221.465 26.907 228.895 26.907C236.326 26.907 242.349 20.8837 242.349 13.4535Z" fill="#182C4F"/>
<path d="M242.349 50.0489C242.349 42.6188 236.326 36.5954 228.895 36.5954C221.465 36.5954 215.442 42.6188 215.442 50.0489C215.442 57.4791 221.465 63.5024 228.895 63.5024C236.326 63.5024 242.349 57.4791 242.349 50.0489Z" fill="#182C4F"/>
<path d="M242.349 86.6443C242.349 79.2141 236.326 73.1908 228.895 73.1908C221.465 73.1908 215.442 79.2141 215.442 86.6443C215.442 94.0744 221.465 100.098 228.895 100.098C236.326 100.098 242.349 94.0744 242.349 86.6443Z" fill="#182C4F"/>
<path d="M278.256 13.4535C278.256 6.02337 272.232 1.90735e-05 264.802 1.90735e-05C257.372 1.90735e-05 251.349 6.02337 251.349 13.4535C251.349 20.8837 257.372 26.907 264.802 26.907C272.232 26.907 278.256 20.8837 278.256 13.4535Z" fill="#182C4F"/>
<path d="M278.256 50.0489C278.256 42.6188 272.232 36.5954 264.802 36.5954C257.372 36.5954 251.349 42.6188 251.349 50.0489C251.349 57.4791 257.372 63.5024 264.802 63.5024C272.232 63.5024 278.256 57.4791 278.256 50.0489Z" fill="#182C4F"/>
<path d="M278.256 86.6443C278.256 79.2141 272.232 73.1908 264.802 73.1908C257.372 73.1908 251.349 79.2141 251.349 86.6443C251.349 94.0744 257.372 100.098 264.802 100.098C272.232 100.098 278.256 94.0744 278.256 86.6443Z" fill="#182C4F"/>
<path d="M314.163 13.4535C314.163 6.02337 308.139 1.90735e-05 300.709 1.90735e-05C293.279 1.90735e-05 287.256 6.02337 287.256 13.4535C287.256 20.8837 293.279 26.907 300.709 26.907C308.139 26.907 314.163 20.8837 314.163 13.4535Z" fill="#182C4F"/>
<path d="M314.163 50.0489C314.163 42.6188 308.139 36.5954 300.709 36.5954C293.279 36.5954 287.256 42.6188 287.256 50.0489C287.256 57.4791 293.279 63.5024 300.709 63.5024C308.139 63.5024 314.163 57.4791 314.163 50.0489Z" fill="#182C4F"/>
<path d="M314.163 86.6443C314.163 79.2141 308.139 73.1908 300.709 73.1908C293.279 73.1908 287.256 79.2141 287.256 86.6443C287.256 94.0744 293.279 100.098 300.709 100.098C308.139 100.098 314.163 94.0744 314.163 86.6443Z" fill="#182C4F"/>
<path d="M350.07 13.4535C350.07 6.02337 344.046 1.90735e-05 336.616 1.90735e-05C329.186 1.90735e-05 323.163 6.02337 323.163 13.4535C323.163 20.8837 329.186 26.907 336.616 26.907C344.046 26.907 350.07 20.8837 350.07 13.4535Z" fill="#182C4F"/>
<path d="M350.07 50.0489C350.07 42.6188 344.046 36.5954 336.616 36.5954C329.186 36.5954 323.163 42.6188 323.163 50.0489C323.163 57.4791 329.186 63.5024 336.616 63.5024C344.046 63.5024 350.07 57.4791 350.07 50.0489Z" fill="#182C4F"/>
<path d="M350.07 86.6443C350.07 79.2141 344.046 73.1908 336.616 73.1908C329.186 73.1908 323.163 79.2141 323.163 86.6443C323.163 94.0744 329.186 100.098 336.616 100.098C344.046 100.098 350.07 94.0744 350.07 86.6443Z" fill="#182C4F"/>
<path d="M385.977 13.4535C385.977 6.02337 379.953 1.90735e-05 372.523 1.90735e-05C365.093 1.90735e-05 359.07 6.02337 359.07 13.4535C359.07 20.8837 365.093 26.907 372.523 26.907C379.953 26.907 385.977 20.8837 385.977 13.4535Z" fill="#182C4F"/>
<path d="M385.977 50.0489C385.977 42.6188 379.953 36.5954 372.523 36.5954C365.093 36.5954 359.07 42.6188 359.07 50.0489C359.07 57.4791 365.093 63.5024 372.523 63.5024C379.953 63.5024 385.977 57.4791 385.977 50.0489Z" fill="#182C4F"/>
<path d="M385.977 86.6443C385.977 79.2141 379.953 73.1908 372.523 73.1908C365.093 73.1908 359.07 79.2141 359.07 86.6443C359.07 94.0744 365.093 100.098 372.523 100.098C379.953 100.098 385.977 94.0744 385.977 86.6443Z" fill="#182C4F"/>
<path d="M421.884 14.1419C421.884 6.71173 415.86 0.688374 408.43 0.688374C401 0.688374 394.977 6.71173 394.977 14.1419C394.977 21.572 401 27.5954 408.43 27.5954C415.86 27.5954 421.884 21.572 421.884 14.1419Z" fill="#182C4F"/>
<path d="M421.884 50.0489C421.884 42.6187 415.86 36.5954 408.43 36.5954C401 36.5954 394.977 42.6187 394.977 50.0489C394.977 57.479 401 63.5024 408.43 63.5024C415.86 63.5024 421.884 57.479 421.884 50.0489Z" fill="#182C4F"/>
<path d="M421.884 85.9559C421.884 78.5258 415.86 72.5024 408.43 72.5024C401 72.5024 394.977 78.5258 394.977 85.9559C394.977 93.3861 401 99.4094 408.43 99.4094C415.86 99.4094 421.884 93.3861 421.884 85.9559Z" fill="#182C4F"/>
<path d="M457.791 32.0954C457.791 24.6652 451.767 18.6419 444.337 18.6419C436.907 18.6419 430.884 24.6652 430.884 32.0954C430.884 39.5255 436.907 45.5489 444.337 45.5489C451.767 45.5489 457.791 39.5255 457.791 32.0954Z" fill="#B8B3AF"/>
<path d="M457.791 68.0024C457.791 60.5722 451.767 54.5488 444.337 54.5488C436.907 54.5488 430.884 60.5722 430.884 68.0024C430.884 75.4325 436.907 81.4559 444.337 81.4559C451.767 81.4559 457.791 75.4325 457.791 68.0024Z" fill="#B8B3AF"/>
</svg>
