<svg width="100%" viewBox="0 0 458 101" height="101" fill="none" xmlns="http://www.w3.org/2000/svg"><path d="M26.907 13.454C26.907 6.024 20.884 0 13.453 0 6.024 0 0 6.023 0 13.454c0 7.43 6.023 13.453 13.454 13.453 7.43 0 13.453-6.023 13.453-13.454ZM26.907 50.049c0-7.43-6.023-13.454-13.454-13.454C6.024 36.595 0 42.62 0 50.05c0 7.43 6.023 13.453 13.454 13.453 7.43 0 13.453-6.023 13.453-13.453ZM26.907 86.644c0-7.43-6.023-13.453-13.454-13.453C6.024 73.19 0 79.214 0 86.644s6.023 13.454 13.454 13.454c7.43 0 13.453-6.024 13.453-13.454ZM62.814 13.454C62.814 6.024 56.79 0 49.36 0c-7.43 0-13.453 6.023-13.453 13.454 0 7.43 6.023 13.453 13.453 13.453s13.454-6.023 13.454-13.454ZM62.814 50.049c0-7.43-6.023-13.454-13.454-13.454-7.43 0-13.453 6.024-13.453 13.454 0 7.43 6.023 13.453 13.453 13.453S62.814 57.48 62.814 50.05ZM62.814 86.644c0-7.43-6.023-13.453-13.454-13.453-7.43 0-13.453 6.023-13.453 13.453s6.023 13.454 13.453 13.454 13.454-6.024 13.454-13.454ZM98.72 13.454C98.72 6.024 92.699 0 85.268 0c-7.43 0-13.453 6.023-13.453 13.454 0 7.43 6.023 13.453 13.453 13.453s13.454-6.023 13.454-13.454ZM98.72 50.049c0-7.43-6.022-13.454-13.453-13.454-7.43 0-13.453 6.024-13.453 13.454 0 7.43 6.023 13.453 13.453 13.453S98.721 57.48 98.721 50.05ZM98.72 86.644c0-7.43-6.022-13.453-13.453-13.453-7.43 0-13.453 6.023-13.453 13.453s6.023 13.454 13.453 13.454 13.454-6.024 13.454-13.454ZM134.628 13.454c0-7.43-6.024-13.454-13.454-13.454-7.43 0-13.453 6.023-13.453 13.454 0 7.43 6.023 13.453 13.453 13.453s13.454-6.023 13.454-13.454ZM134.628 50.049c0-7.43-6.024-13.454-13.454-13.454-7.43 0-13.453 6.024-13.453 13.454 0 7.43 6.023 13.453 13.453 13.453s13.454-6.023 13.454-13.453ZM134.628 86.644c0-7.43-6.024-13.453-13.454-13.453-7.43 0-13.453 6.023-13.453 13.453s6.023 13.454 13.453 13.454 13.454-6.024 13.454-13.454ZM170.535 13.454c0-7.43-6.024-13.454-13.454-13.454-7.43 0-13.453 6.023-13.453 13.454 0 7.43 6.023 13.453 13.453 13.453s13.454-6.023 13.454-13.454ZM170.535 50.049c0-7.43-6.024-13.454-13.454-13.454-7.43 0-13.453 6.024-13.453 13.454 0 7.43 6.023 13.453 13.453 13.453s13.454-6.023 13.454-13.453ZM170.535 86.644c0-7.43-6.024-13.453-13.454-13.453-7.43 0-13.453 6.023-13.453 13.453s6.023 13.454 13.453 13.454 13.454-6.024 13.454-13.454ZM206.442 13.454c0-7.43-6.024-13.454-13.454-13.454-7.43 0-13.453 6.023-13.453 13.454 0 7.43 6.023 13.453 13.453 13.453s13.454-6.023 13.454-13.454ZM206.442 50.049c0-7.43-6.024-13.454-13.454-13.454-7.43 0-13.453 6.024-13.453 13.454 0 7.43 6.023 13.453 13.453 13.453s13.454-6.023 13.454-13.453ZM206.442 86.644c0-7.43-6.024-13.453-13.454-13.453-7.43 0-13.453 6.023-13.453 13.453s6.023 13.454 13.453 13.454 13.454-6.024 13.454-13.454ZM242.349 13.454c0-7.43-6.024-13.454-13.454-13.454-7.43 0-13.453 6.023-13.453 13.454 0 7.43 6.023 13.453 13.453 13.453s13.454-6.023 13.454-13.454ZM242.349 50.049c0-7.43-6.024-13.454-13.454-13.454-7.43 0-13.453 6.024-13.453 13.454 0 7.43 6.023 13.453 13.453 13.453s13.454-6.023 13.454-13.453ZM242.349 86.644c0-7.43-6.024-13.453-13.454-13.453-7.43 0-13.453 6.023-13.453 13.453s6.023 13.454 13.453 13.454 13.454-6.024 13.454-13.454ZM278.256 13.454c0-7.43-6.024-13.454-13.454-13.454-7.43 0-13.453 6.023-13.453 13.454 0 7.43 6.023 13.453 13.453 13.453s13.454-6.023 13.454-13.454ZM278.256 50.049c0-7.43-6.024-13.454-13.454-13.454-7.43 0-13.453 6.024-13.453 13.454 0 7.43 6.023 13.453 13.453 13.453s13.454-6.023 13.454-13.453ZM278.256 86.644c0-7.43-6.024-13.453-13.454-13.453-7.43 0-13.453 6.023-13.453 13.453s6.023 13.454 13.453 13.454 13.454-6.024 13.454-13.454ZM314.163 13.454c0-7.43-6.024-13.454-13.454-13.454-7.43 0-13.453 6.023-13.453 13.454 0 7.43 6.023 13.453 13.453 13.453s13.454-6.023 13.454-13.454ZM314.163 50.049c0-7.43-6.024-13.454-13.454-13.454-7.43 0-13.453 6.024-13.453 13.454 0 7.43 6.023 13.453 13.453 13.453s13.454-6.023 13.454-13.453ZM314.163 86.644c0-7.43-6.024-13.453-13.454-13.453-7.43 0-13.453 6.023-13.453 13.453s6.023 13.454 13.453 13.454 13.454-6.024 13.454-13.454ZM350.07 13.454C350.07 6.024 344.046 0 336.616 0c-7.43 0-13.453 6.023-13.453 13.454 0 7.43 6.023 13.453 13.453 13.453s13.454-6.023 13.454-13.454ZM350.07 50.049c0-7.43-6.024-13.454-13.454-13.454-7.43 0-13.453 6.024-13.453 13.454 0 7.43 6.023 13.453 13.453 13.453S350.07 57.48 350.07 50.05ZM350.07 86.644c0-7.43-6.024-13.453-13.454-13.453-7.43 0-13.453 6.023-13.453 13.453s6.023 13.454 13.453 13.454 13.454-6.024 13.454-13.454ZM385.977 13.454c0-7.43-6.024-13.454-13.454-13.454-7.43 0-13.453 6.023-13.453 13.454 0 7.43 6.023 13.453 13.453 13.453s13.454-6.023 13.454-13.454ZM385.977 50.049c0-7.43-6.024-13.454-13.454-13.454-7.43 0-13.453 6.024-13.453 13.454 0 7.43 6.023 13.453 13.453 13.453s13.454-6.023 13.454-13.453ZM385.977 86.644c0-7.43-6.024-13.453-13.454-13.453-7.43 0-13.453 6.023-13.453 13.453s6.023 13.454 13.453 13.454 13.454-6.024 13.454-13.454ZM421.884 14.142c0-7.43-6.024-13.454-13.454-13.454-7.43 0-13.453 6.024-13.453 13.454 0 7.43 6.023 13.453 13.453 13.453s13.454-6.023 13.454-13.453ZM421.884 50.049c0-7.43-6.024-13.454-13.454-13.454-7.43 0-13.453 6.024-13.453 13.454 0 7.43 6.023 13.453 13.453 13.453s13.454-6.023 13.454-13.453ZM421.884 85.956c0-7.43-6.024-13.454-13.454-13.454-7.43 0-13.453 6.024-13.453 13.454 0 7.43 6.023 13.453 13.453 13.453s13.454-6.023 13.454-13.453Z" fill="#601DB3"></path><path d="M457.791 32.095c0-7.43-6.024-13.453-13.454-13.453-7.43 0-13.453 6.023-13.453 13.453s6.023 13.454 13.453 13.454 13.454-6.023 13.454-13.454ZM457.791 68.002c0-7.43-6.024-13.453-13.454-13.453-7.43 0-13.453 6.023-13.453 13.453s6.023 13.454 13.453 13.454 13.454-6.023 13.454-13.454Z" fill="#B8B3AF"></path></svg>