<svg width="232" viewBox="0 0 232 124" fill="none" xmlns="http://www.w3.org/2000/svg"><g opacity=".17" fill="#182C4F"><path d="m205.928 133.608 2.242 9.081a22.058 22.058 0 0 0-.326-2.362 33.305 33.305 0 0 0-1.142-4.52 46.848 46.848 0 0 0-.774-2.199Z"></path><path d="M280.605 12.713c-.245-.936-1.386-.977-2.079-1.384a1.1 1.1 0 0 1-.53-.611 9.342 9.342 0 0 0-1.101-3.461c-1.589-2.973-4.076-4.968-4.076-9.814a2.152 2.152 0 0 0-.326-.895 5.336 5.336 0 0 0-2.038-1.873 10.39 10.39 0 0 1-1.549-1.06 3.179 3.179 0 0 1-1.06-1.465 3.496 3.496 0 0 1 0-.937 20.675 20.675 0 0 1 0-2.198c.021-.38.021-.76 0-1.14 0-.978 0-2.077-.244-3.217-.245-2.28-.53-4.805-.775-7.452 0-1.303-.244-2.606-.285-4.072 0-3.665.407-7.248 0-10.22l-.245-1.385a26.941 26.941 0 0 1-1.426-8.592 6.326 6.326 0 0 0-4.077 0c-.59.138-1.189.233-1.793.285h-.897c-.856-.529-1.59-1.18-2.405-1.75a5.548 5.548 0 0 0-2.731-1.181 5.346 5.346 0 0 0-1.141 0c-.455.064-.904.16-1.346.285-.366 0-.366-.407-.407-.815.02-.175.02-.353 0-.529a.656.656 0 0 0-.245-.326 2.362 2.362 0 0 0-.652-.203c-.489 0-.775 0-1.712.203-.775-.936-1.182-2.24-2.813-2.361h-.774c-.693-1.71-1.427-2.321-2.201-2.321a3.546 3.546 0 0 0-2.038.814 13.466 13.466 0 0 1-3.017 1.629 4.086 4.086 0 0 1-1.427 0 2.573 2.573 0 0 1-1.508-.57 5.339 5.339 0 0 0-2.079-.733 3.395 3.395 0 0 0-1.182.448 21.324 21.324 0 0 1-3.098 1.832 4.526 4.526 0 0 0-1.589-.285 8.986 8.986 0 0 0-1.509.244l-.774.285a25.52 25.52 0 0 0-2.935 1.548 7.547 7.547 0 0 1-5.177 1.506 35.41 35.41 0 0 1-2.772-2.28 4.074 4.074 0 0 1-.285-1.18 6.094 6.094 0 0 1 0-1.467 2 2 0 0 0-.571 0 4.845 4.845 0 0 0-1.467.652c-.574.38-1.173.72-1.794 1.018l-1.1.285a5.59 5.59 0 0 1-1.386 0 .695.695 0 0 1-.408 0l-.285-.245c-.15-.238-.26-.5-.326-.773a1.406 1.406 0 0 1 0-.367 1.065 1.065 0 0 0-.816-.773 2.406 2.406 0 0 0-1.467 1.18c-1.019 1.589-1.019 4.276-3.18 4.765 0-1.425.408-3.095 0-3.665a4.08 4.08 0 0 0-4.076.896l-1.1.773a5.726 5.726 0 0 1-.693-2.28 1.922 1.922 0 0 1-.612.244 2.488 2.488 0 0 1-2.364-.651l-.652-.61a3.013 3.013 0 0 0-1.508.65 18.209 18.209 0 0 1-2.324 1.996 3.548 3.548 0 0 1-1.834.326c-1.101-.489-1.386-1.873-1.305-3.624h-3.138v-2.728h-3.628c-.447.06-.899.06-1.345 0a.94.94 0 0 0-.612.61l-.326.53a.728.728 0 0 1-.53.244 1.224 1.224 0 0 1-.489 0c-1.345-.407-2.486-.977-3.628-1.222h-.856a5.71 5.71 0 0 0-2.853.733 17.904 17.904 0 0 0-3.75-1.873 18.524 18.524 0 0 0-4.484-1.1c.407-5.944-6.074-4.52-10.68-4.071a22.047 22.047 0 0 0-6.237-4.642c-1.019-15.27-.815-31.883-1.019-48.008-18.343 0-40.762.326-61.144-.285 0 .407-.489.407-.326.977-1.304 11.402 0 23.617-.693 35.792-.407 8.633-.367 18.894-.367 28.504 0 8.795 0 17.713-.244 26.223-.367 7.574.693 17.183-.693 22.843-25.436-.692-49.69-2.484-75.94-2.361C-.454.294 4.112.823 5.986 3.307c1.876 2.484 1.713 5.986 4.648 7.9.611 1.058 1.019 0 2.364.366.032.258.115.507.244.733.245.285.449.651.694.977.244.326 0 .204.285.285a27.582 27.582 0 0 0 3.546 3.38c.042.188.042.382 0 .57.315.139.643.248.978.326.173.127.366.223.571.285a20.363 20.363 0 0 1 1.712 2.076 14.256 14.256 0 0 0 3.791 4.683 8.15 8.15 0 0 0 1.182 1.181 47.25 47.25 0 0 1 10.272 12.216c1.427 1.791 3.587 1.954 4.076 4.316.286 1.71-1.304 3.705-.692 6.27.693 1.263 1.752 1.996 2.364 3.34-.816 5.13 3.628 5.253 5.951 7.248 1.345 1.1 2.08 3.746 4.077 5.008a15.626 15.626 0 0 0 7.337 1.629c.74.68 1.397 1.445 1.956 2.28 4.729 1.059 7.215 6.596 12.23 4.642 2.567-.896 2.73-4.642 5.991-5.579 0-1.18-.652-1.587-.693-2.646 3.791-2.403 1.998-8.144 5.951-10.302 1.386-.774 3.18-.407 4.647-.977 1.468-.57 1.712-1.873 3.302-1.67 1.59.204 1.386 1.751 2.976 1.67 5.217-.896 9.416 1.18 14.634.366a7.9 7.9 0 0 1 1.671 3.298c2.079 0 2.568 1.792 3.302 3.34 1.1 0 2.649-.286 3.261.244.611.53 0 2.769.693 3.705 2.282.896 5.258 1.1 5.013 4.601.693.774 1.998.855 2.609 1.67-.407 4.845 3.383 5.456 4.647 8.592.285 1.018-.571.977-.367 1.995 4.076 2.076 2.935 6.8 5.014 9.976 1.182 1.71 3.383 2.688 4.973 4.072a54.546 54.546 0 0 1 5.625 8.592 25.785 25.785 0 0 1 4.973 3.339c.775.529 2.568 0 2.65 1.303a28.497 28.497 0 0 0-.612 7.003c1.509.53 1.427 2.769 1.305 4.968a20.685 20.685 0 0 1 6.318 9.813 50.077 50.077 0 0 0 2.976 6.719c.441.25.925.416 1.426.489h3.058c.499.028.993.124 1.467.285 1.508.57 2.772 2.158 4.28 2.687 1.007.298 2.048.463 3.098.489a8.157 8.157 0 0 1 2.853.488c1.142.489 2.039 1.792 3.139 2.647a4.51 4.51 0 0 0 1.223.692h.897c2.16.245 4.606-.896 7.092-.529.314.067.607.206.857.407.314.254.674.447 1.059.57.229.042.464.042.693 0 .775 0 1.59 0 2.038.204.125.195.234.399.326.611a.626.626 0 0 0 0 .244.692.692 0 0 0 .408 0h.489c.254-.066.521-.066.775 0 .301.225.574.485.815.774.611.773 1.101 1.588 1.957 1.832h.529a5.583 5.583 0 0 0 3.425-5.375 4.722 4.722 0 0 0-1.753-3.624v-3.257a7.904 7.904 0 0 0-2.487-1.589 3.442 3.442 0 0 1-.896-.814 2.436 2.436 0 0 1-.286-.57c0-.692.408-2.687.326-3.665a7.6 7.6 0 0 0-1.019-2.972 15.397 15.397 0 0 1-1.956-4.276 5.09 5.09 0 0 1 .407-2.239 26.32 26.32 0 0 0 1.794-4.072 3.38 3.38 0 0 0 0-2.077 3.763 3.763 0 0 0-2.242-.611 10.24 10.24 0 0 1-2.405-.366 2.318 2.318 0 0 0-.652-1.792c-.653-.773-1.59-1.303-1.345-1.873.372-.003.739.095 1.059.285l.449.285.774.652c.3.191.631.329.978.407h.653c.611-.489 0-2.158.856-2.362h.489c1.59.53 0 2.891 1.019 3.299a6.31 6.31 0 0 0 2.446-4.52c0-.937.326-1.955.489-2.932.163-.977 0-.977.285-1.466.112-.442.248-.877.408-1.303l-.612-.285h-.652c-1.304-.448-2.69-.774-2.69-2.484a2.286 2.286 0 0 1 1.916-.692h.774l1.631.244h1.63c.489-.95.938-1.886 1.345-2.81.449-.936.856-1.832 1.264-2.768a2.285 2.285 0 0 0-1.386 0l-.774.203h-.327c-.203 0-.366-.203-.489-.57.065-.334.161-.66.286-.977.856-2.077 3.057-2.81 5.054-3.665.043.229.043.464 0 .692a3.175 3.175 0 0 0-.244 1.1.77.77 0 0 0 .285.489c4.362.773 2.568-4.683 4.647-6.271 1.182 2.606 5.462.733 6.318-.977-.245-1.466-1.549-2.24-2.69-3.054a5.002 5.002 0 0 1-1.427-1.344 2.15 2.15 0 0 1-.204-1.914l.53-.244h.489a6.718 6.718 0 0 1 1.875.936c.327.176.69.273 1.06.285.489-.366 0-1.425.612-1.832h.733c0 .61.408.896.734.977.188.041.383.041.571 0 .733 0 1.589-.855 2.079-.977h.285a3.2 3.2 0 0 1 0 .896c-.245.814-.693 1.588-.245 2.076 1.875.245 2.079-1.303 3.669-1.303a15.558 15.558 0 0 0 3.506-.325 15.16 15.16 0 0 0 2.894-1.018c.859-.42 1.69-.896 2.486-1.426.816-.488 1.59-1.058 2.405-1.588a37.604 37.604 0 0 0 5.136-4.072l1.468-1.425a8.369 8.369 0 0 1 0-.896c-.063-.909.105-1.82.489-2.646 0-.407.326-.814.489-1.262.163-.448 0-.49.204-.774h.897a4.975 4.975 0 0 0 2.772-1.629 5.79 5.79 0 0 0 1.345-2.85 6.67 6.67 0 0 0 0-1.547 4.392 4.392 0 0 0-.449-1.466 4.068 4.068 0 0 0-1.63-1.71 4.075 4.075 0 0 0-1.305-3.299c-.693-.896-1.222-1.629-.366-2.647.397-.066.805.022 1.141.245.28.192.516.442.693.733a1.71 1.71 0 0 0 1.793.936 4.442 4.442 0 0 0 1.549-.896 3.019 3.019 0 0 1 1.753-.733c.254.093.489.231.693.408 1.182 1.1 0 2.972 0 4.926.29.227.652.342 1.019.326a17.518 17.518 0 0 0 1.916-.366h.734c.406-.014.801.132 1.1.407l.49-.203.489.203c5.421.407 7.704-5.13 13.94-4.968a3.123 3.123 0 0 0 0-1.099c-.203-.651-.57-1.18-.733-1.873a2.23 2.23 0 0 1 0-1.059c0-1.629 1.997-3.217 2.731-5.13a2.67 2.67 0 0 0 .244-.815 9.232 9.232 0 0 0-1.671-7.289c1.549-1.995 0-4.071.367-5.944.45-1.386 1.14-2.681 2.038-3.828.263-.471.456-.98.571-1.507.204-1.384-.775-3.42-.367-7.085Z"></path><path d="M222.64 86.211a13.33 13.33 0 0 0-5.38 4.072l-.978.896a8.906 8.906 0 0 1-2.324 1.425 11.83 11.83 0 0 1-.978 1.262 7.652 7.652 0 0 0-1.753 2.973 2.761 2.761 0 0 0 0 1.71 3.304 3.304 0 0 0 1.468-1.71 6.77 6.77 0 0 1 1.141-1.873 13.492 13.492 0 0 1 2.527-2.036c1.386-.856 2.894-1.63 4.076-2.566a7.66 7.66 0 0 0 2.976-3.705h-.285c0-.285-.123-.489-.49-.448ZM208.414 99.77a28.063 28.063 0 0 0-2.812 4.072 26.812 26.812 0 0 0-3.465 13.845 31.94 31.94 0 0 0 .285 3.298l.367-.488h.611a29.074 29.074 0 0 1 .612-7.086 24.044 24.044 0 0 1 1.101-4.072 32.282 32.282 0 0 1 1.467-3.379l.774-1.548c.231-.408.504-.79.816-1.14.472-.565.882-1.179 1.223-1.832.117-.44.117-.904 0-1.344a2.88 2.88 0 0 0-.245-.692l-.734.366ZM254.028 62.553a92.912 92.912 0 0 0-2.731 2.973l11.576-11.28a93.628 93.628 0 0 0-8.845 8.307Z"></path><path d="M204.746 130.391a98.733 98.733 0 0 0 1.182 3.176l-3.18-13.07a19.098 19.098 0 0 0 .204 3.42 33.262 33.262 0 0 0 1.794 6.474Z"></path></g></svg>