<svg width="327" viewBox="0 0 327 57" fill="none" xmlns="http://www.w3.org/2000/svg"><path d="M133.155 37V22.216h-2.832v-2.304h8.112v2.304h-2.832V37h-2.448Zm7.561 0V19.912h2.448v7.32h3.024v-7.32h2.448V37h-2.448v-7.608h-3.024V37h-2.448Zm11.419 0V19.912h7.296v2.304h-4.848v5.016h4.224v2.304h-4.224v5.016h4.848V37h-7.296Zm15.736 0V19.912h3.672c.672 0 1.264.088 1.776.264.512.176.976.488 1.392.936.416.448.704.976.864 1.584.16.592.24 1.4.24 2.424 0 .768-.048 1.416-.144 1.944a3.905 3.905 0 0 1-.552 1.488c-.336.56-.784 1-1.344 1.32-.56.304-1.296.456-2.208.456h-1.248V37h-2.448Zm2.448-14.784v5.808h1.176c.496 0 .88-.072 1.152-.216a1.36 1.36 0 0 0 .6-.6c.128-.24.2-.536.216-.888.032-.352.048-.744.048-1.176 0-.4-.008-.776-.024-1.128a2.494 2.494 0 0 0-.216-.96 1.363 1.363 0 0 0-.576-.624c-.256-.144-.624-.216-1.104-.216h-1.272Zm10.973 0v5.328h1.392c.432 0 .776-.056 1.032-.168.256-.128.456-.304.6-.528.128-.224.216-.496.264-.816a8.22 8.22 0 0 0 .072-1.152c0-.432-.024-.808-.072-1.128a2.294 2.294 0 0 0-.288-.864c-.304-.448-.88-.672-1.728-.672h-1.272ZM178.844 37V19.912h3.936c2.88 0 4.32 1.672 4.32 5.016 0 1.008-.16 1.864-.48 2.568-.304.704-.848 1.272-1.632 1.704l2.64 7.8h-2.592l-2.28-7.296h-1.464V37h-2.448Zm11.491 0V19.912h2.448V37h-2.448Zm6.026 0V19.912h2.352l3.144 9.048h.048l3.12-9.048h2.376V37h-2.448V26.608h-.048l-2.424 7.344h-1.224l-2.4-7.344h-.048V37h-2.448Zm19.48-5.976-1.2-6.192h-.048l-1.2 6.192h2.448ZM209.793 37l3.816-17.088h2.04L219.465 37h-2.448l-.72-3.672h-3.336l-.72 3.672h-2.448Zm14.526-14.784v5.328h1.392c.432 0 .776-.056 1.032-.168.256-.128.456-.304.6-.528.128-.224.216-.496.264-.816a8.22 8.22 0 0 0 .072-1.152c0-.432-.024-.808-.072-1.128a2.294 2.294 0 0 0-.288-.864c-.304-.448-.88-.672-1.728-.672h-1.272ZM221.871 37V19.912h3.936c2.88 0 4.32 1.672 4.32 5.016 0 1.008-.16 1.864-.48 2.568-.304.704-.848 1.272-1.632 1.704l2.64 7.8h-2.592l-2.28-7.296h-1.464V37h-2.448Zm13.277 0v-7.224l-3.36-9.864h2.592l1.968 6.792h.048l1.968-6.792h2.592l-3.36 9.864V37h-2.448Zm13.877 0V19.912h3.672c.672 0 1.264.088 1.776.264.512.176.976.488 1.392.936.416.448.704.976.864 1.584.16.592.24 1.4.24 2.424 0 .768-.048 1.416-.144 1.944a3.905 3.905 0 0 1-.552 1.488c-.336.56-.784 1-1.344 1.32-.56.304-1.296.456-2.208.456h-1.248V37h-2.448Zm2.448-14.784v5.808h1.176c.496 0 .88-.072 1.152-.216a1.36 1.36 0 0 0 .6-.6c.128-.24.2-.536.216-.888.032-.352.048-.744.048-1.176 0-.4-.008-.776-.024-1.128a2.494 2.494 0 0 0-.216-.96 1.363 1.363 0 0 0-.576-.624c-.256-.144-.624-.216-1.104-.216h-1.272Zm10.974 0v5.328h1.392c.432 0 .776-.056 1.032-.168.256-.128.456-.304.6-.528.128-.224.216-.496.264-.816a8.22 8.22 0 0 0 .072-1.152c0-.432-.024-.808-.072-1.128a2.294 2.294 0 0 0-.288-.864c-.304-.448-.88-.672-1.728-.672h-1.272ZM259.999 37V19.912h3.936c2.88 0 4.32 1.672 4.32 5.016 0 1.008-.16 1.864-.48 2.568-.304.704-.848 1.272-1.632 1.704l2.64 7.8h-2.592l-2.28-7.296h-1.464V37h-2.448Zm11.275-13.056c0-.688.12-1.296.36-1.824s.56-.968.96-1.32a4.09 4.09 0 0 1 1.296-.768 4.424 4.424 0 0 1 1.488-.264c.496 0 .984.088 1.464.264.496.176.944.432 1.344.768.384.352.696.792.936 1.32.24.528.36 1.136.36 1.824v9.024c0 .72-.12 1.336-.36 1.848s-.552.936-.936 1.272c-.4.352-.848.616-1.344.792-.48.176-.968.264-1.464.264s-.992-.088-1.488-.264a3.878 3.878 0 0 1-1.296-.792c-.4-.336-.72-.76-.96-1.272s-.36-1.128-.36-1.848v-9.024Zm2.448 9.024c0 .592.16 1.032.48 1.32.336.272.728.408 1.176.408a1.72 1.72 0 0 0 1.152-.408c.336-.288.504-.728.504-1.32v-9.024c0-.592-.168-1.024-.504-1.296a1.663 1.663 0 0 0-1.152-.432c-.448 0-.84.144-1.176.432-.32.272-.48.704-.48 1.296v9.024ZM282.836 37V19.912h3.576c.784 0 1.448.12 1.992.36.56.24 1.016.56 1.368.96.352.4.6.864.744 1.392.16.512.24 1.048.24 1.608v.624c0 .464-.04.856-.12 1.176-.064.32-.168.6-.312.84-.272.448-.688.832-1.248 1.152.576.272 1 .672 1.272 1.2.272.528.408 1.248.408 2.16v.96c0 1.504-.368 2.656-1.104 3.456-.72.8-1.88 1.2-3.48 1.2h-3.336Zm2.448-7.92v5.472h1.056c.496 0 .88-.072 1.152-.216.288-.144.504-.344.648-.6.144-.256.232-.56.264-.912s.048-.736.048-1.152c0-.432-.024-.808-.072-1.128a2.056 2.056 0 0 0-.288-.816 1.31 1.31 0 0 0-.648-.48c-.272-.112-.632-.168-1.08-.168h-1.08Zm0-6.864v4.704h1.104c.816 0 1.36-.2 1.632-.6.288-.416.432-1.016.432-1.8 0-.768-.16-1.344-.48-1.728-.304-.384-.864-.576-1.68-.576h-1.008ZM294.255 37V19.912h2.448v14.64h4.848V37h-7.296Zm10.083 0V19.912h7.296v2.304h-4.848v5.016h4.224v2.304h-4.224v5.016h4.848V37h-7.296Zm10.083 0V19.912h2.352l3.144 9.048h.048l3.12-9.048h2.376V37h-2.448V26.608h-.048l-2.424 7.344h-1.224l-2.4-7.344h-.048V37h-2.448Z" fill="#182C4F"></path><path d="M90 0H0v43.74h90V0Z" fill="#DA4739"></path><path d="M20.349 30.676a7.432 7.432 0 0 1-.589 2.966 7.576 7.576 0 0 1-3.97 4.012 7.357 7.357 0 0 1-5.78 0 7.576 7.576 0 0 1-3.97-4.012 7.432 7.432 0 0 1-.588-2.966V5.488h4.593V30.22c0 1.155.272 2.007.814 2.555a2.746 2.746 0 0 0 2.045.822 2.73 2.73 0 0 0 2.032-.822c.541-.547.812-1.398.812-2.555V5.488h4.6v25.188ZM25.627 5.488h4.427l6.953 19.577h.092V5.488h4.606v32.49h-4.336l-7.045-19.53h-.092v19.53h-4.605V5.487ZM51.802 5.488h-4.608v32.49h4.608V5.487ZM59.482 9.869h-4.454v-4.38h13.517v4.38H64.09v28.108h-4.608V9.87ZM71.706 5.488h12.857v4.38h-8.251v9.538h7.075v4.38h-7.075v9.538h8.251v4.654H71.706V5.487Z" fill="#fff"></path><path d="M3.97 47.35h2.482l3.97 9.462H7.638l-.677-1.677H3.375l-.665 1.677H0l3.97-9.462Zm2.259 5.766-1.035-2.67-1.05 2.67H6.23ZM15.256 47.417h2.725l2.216 3.636 2.221-3.636h2.722v9.395h-2.563v-5.396l-2.38 3.678h-.052l-2.365-3.65v5.368h-2.524v-9.395ZM31.364 47.417h7.48v2.214h-4.929v1.422h4.464v2.053h-4.464v1.492h4.995v2.214h-7.546v-9.395ZM44.87 47.417h4.398c1.422 0 2.405.374 3.028 1.018a2.916 2.916 0 0 1 .823 2.189v.023a2.995 2.995 0 0 1-.495 1.754 2.947 2.947 0 0 1-1.415 1.131l2.218 3.275H50.45l-1.87-2.846h-1.13v2.846h-2.578v-9.39Zm4.279 4.513c.876 0 1.38-.428 1.38-1.113v-.028c0-.737-.531-1.113-1.395-1.113H47.45v2.257l1.7-.003ZM61.214 47.417h-2.59v9.395h2.59v-9.395ZM66.532 52.151v-.028c0-2.737 2.085-4.884 4.901-4.884 1.901 0 3.122.805 3.946 1.958l-1.938 1.505c-.531-.672-1.144-1.1-2.033-1.1-1.302 0-2.218 1.112-2.218 2.481v.028c0 1.409.916 2.507 2.218 2.507.97 0 1.541-.456 2.1-1.14l1.938 1.396c-.876 1.22-2.06 2.121-4.117 2.121a4.671 4.671 0 0 1-1.848-.346 4.71 4.71 0 0 1-1.568-1.048 4.807 4.807 0 0 1-1.381-3.45ZM83.558 47.35h2.481l3.959 9.462h-2.76l-.677-1.677h-3.589l-.665 1.677h-2.71l3.96-9.462Zm2.258 5.766-1.037-2.67-1.05 2.67h2.087Z" fill="#182C4F"></path><path stroke="#B8B3AF" d="M110.5 0v57"></path></svg>