<svg width="327" height="57" viewBox="0 0 327 57" fill="none" xmlns="http://www.w3.org/2000/svg">
<path d="M133.155 37V22.216H130.323V19.912H138.435V22.216H135.603V37H133.155ZM140.716 37V19.912H143.164V27.232H146.188V19.912H148.636V37H146.188V29.392H143.164V37H140.716ZM152.135 37V19.912H159.431V22.216H154.583V27.232H158.807V29.536H154.583V34.552H159.431V37H152.135ZM167.871 37V19.912H171.543C172.215 19.912 172.807 20 173.319 20.176C173.831 20.352 174.295 20.664 174.711 21.112C175.127 21.56 175.415 22.088 175.575 22.696C175.735 23.288 175.815 24.096 175.815 25.12C175.815 25.888 175.767 26.536 175.671 27.064C175.591 27.592 175.407 28.088 175.119 28.552C174.783 29.112 174.335 29.552 173.775 29.872C173.215 30.176 172.479 30.328 171.567 30.328H170.319V37H167.871ZM170.319 22.216V28.024H171.495C171.991 28.024 172.375 27.952 172.647 27.808C172.919 27.664 173.119 27.464 173.247 27.208C173.375 26.968 173.447 26.672 173.463 26.32C173.495 25.968 173.511 25.576 173.511 25.144C173.511 24.744 173.503 24.368 173.487 24.016C173.471 23.648 173.399 23.328 173.271 23.056C173.143 22.784 172.951 22.576 172.695 22.432C172.439 22.288 172.071 22.216 171.591 22.216H170.319ZM181.292 22.216V27.544H182.684C183.116 27.544 183.46 27.488 183.716 27.376C183.972 27.248 184.172 27.072 184.316 26.848C184.444 26.624 184.532 26.352 184.58 26.032C184.628 25.696 184.652 25.312 184.652 24.88C184.652 24.448 184.628 24.072 184.58 23.752C184.532 23.416 184.436 23.128 184.292 22.888C183.988 22.44 183.412 22.216 182.564 22.216H181.292ZM178.844 37V19.912H182.78C185.66 19.912 187.1 21.584 187.1 24.928C187.1 25.936 186.94 26.792 186.62 27.496C186.316 28.2 185.772 28.768 184.988 29.2L187.628 37H185.036L182.756 29.704H181.292V37H178.844ZM190.335 37V19.912H192.783V37H190.335ZM196.361 37V19.912H198.713L201.857 28.96H201.905L205.025 19.912H207.401V37H204.953V26.608H204.905L202.481 33.952H201.257L198.857 26.608H198.809V37H196.361ZM215.841 31.024L214.641 24.832H214.593L213.393 31.024H215.841ZM209.793 37L213.609 19.912H215.649L219.465 37H217.017L216.297 33.328H212.961L212.241 37H209.793ZM224.319 22.216V27.544H225.711C226.143 27.544 226.487 27.488 226.743 27.376C226.999 27.248 227.199 27.072 227.343 26.848C227.471 26.624 227.559 26.352 227.607 26.032C227.655 25.696 227.679 25.312 227.679 24.88C227.679 24.448 227.655 24.072 227.607 23.752C227.559 23.416 227.463 23.128 227.319 22.888C227.015 22.44 226.439 22.216 225.591 22.216H224.319ZM221.871 37V19.912H225.807C228.687 19.912 230.127 21.584 230.127 24.928C230.127 25.936 229.967 26.792 229.647 27.496C229.343 28.2 228.799 28.768 228.015 29.2L230.655 37H228.063L225.783 29.704H224.319V37H221.871ZM235.148 37V29.776L231.788 19.912H234.38L236.348 26.704H236.396L238.364 19.912H240.956L237.596 29.776V37H235.148ZM249.025 37V19.912H252.697C253.369 19.912 253.961 20 254.473 20.176C254.985 20.352 255.449 20.664 255.865 21.112C256.281 21.56 256.569 22.088 256.729 22.696C256.889 23.288 256.969 24.096 256.969 25.12C256.969 25.888 256.921 26.536 256.825 27.064C256.745 27.592 256.561 28.088 256.273 28.552C255.937 29.112 255.489 29.552 254.929 29.872C254.369 30.176 253.633 30.328 252.721 30.328H251.473V37H249.025ZM251.473 22.216V28.024H252.649C253.145 28.024 253.529 27.952 253.801 27.808C254.073 27.664 254.273 27.464 254.401 27.208C254.529 26.968 254.601 26.672 254.617 26.32C254.649 25.968 254.665 25.576 254.665 25.144C254.665 24.744 254.657 24.368 254.641 24.016C254.625 23.648 254.553 23.328 254.425 23.056C254.297 22.784 254.105 22.576 253.849 22.432C253.593 22.288 253.225 22.216 252.745 22.216H251.473ZM262.447 22.216V27.544H263.839C264.271 27.544 264.615 27.488 264.871 27.376C265.127 27.248 265.327 27.072 265.471 26.848C265.599 26.624 265.687 26.352 265.735 26.032C265.783 25.696 265.807 25.312 265.807 24.88C265.807 24.448 265.783 24.072 265.735 23.752C265.687 23.416 265.591 23.128 265.447 22.888C265.143 22.44 264.567 22.216 263.719 22.216H262.447ZM259.999 37V19.912H263.935C266.815 19.912 268.255 21.584 268.255 24.928C268.255 25.936 268.095 26.792 267.775 27.496C267.471 28.2 266.927 28.768 266.143 29.2L268.783 37H266.191L263.911 29.704H262.447V37H259.999ZM271.274 23.944C271.274 23.256 271.394 22.648 271.634 22.12C271.874 21.592 272.194 21.152 272.594 20.8C272.978 20.464 273.41 20.208 273.89 20.032C274.386 19.856 274.882 19.768 275.378 19.768C275.874 19.768 276.362 19.856 276.842 20.032C277.338 20.208 277.786 20.464 278.186 20.8C278.57 21.152 278.882 21.592 279.122 22.12C279.362 22.648 279.482 23.256 279.482 23.944V32.968C279.482 33.688 279.362 34.304 279.122 34.816C278.882 35.328 278.57 35.752 278.186 36.088C277.786 36.44 277.338 36.704 276.842 36.88C276.362 37.056 275.874 37.144 275.378 37.144C274.882 37.144 274.386 37.056 273.89 36.88C273.41 36.704 272.978 36.44 272.594 36.088C272.194 35.752 271.874 35.328 271.634 34.816C271.394 34.304 271.274 33.688 271.274 32.968V23.944ZM273.722 32.968C273.722 33.56 273.882 34 274.202 34.288C274.538 34.56 274.93 34.696 275.378 34.696C275.826 34.696 276.21 34.56 276.53 34.288C276.866 34 277.034 33.56 277.034 32.968V23.944C277.034 23.352 276.866 22.92 276.53 22.648C276.21 22.36 275.826 22.216 275.378 22.216C274.93 22.216 274.538 22.36 274.202 22.648C273.882 22.92 273.722 23.352 273.722 23.944V32.968ZM282.836 37V19.912H286.412C287.196 19.912 287.86 20.032 288.404 20.272C288.964 20.512 289.42 20.832 289.772 21.232C290.124 21.632 290.372 22.096 290.516 22.624C290.676 23.136 290.756 23.672 290.756 24.232V24.856C290.756 25.32 290.716 25.712 290.636 26.032C290.572 26.352 290.468 26.632 290.324 26.872C290.052 27.32 289.636 27.704 289.076 28.024C289.652 28.296 290.076 28.696 290.348 29.224C290.62 29.752 290.756 30.472 290.756 31.384V32.344C290.756 33.848 290.388 35 289.652 35.8C288.932 36.6 287.772 37 286.172 37H282.836ZM285.284 29.08V34.552H286.34C286.836 34.552 287.22 34.48 287.492 34.336C287.78 34.192 287.996 33.992 288.14 33.736C288.284 33.48 288.372 33.176 288.404 32.824C288.436 32.472 288.452 32.088 288.452 31.672C288.452 31.24 288.428 30.864 288.38 30.544C288.332 30.224 288.236 29.952 288.092 29.728C287.932 29.504 287.716 29.344 287.444 29.248C287.172 29.136 286.812 29.08 286.364 29.08H285.284ZM285.284 22.216V26.92H286.388C287.204 26.92 287.748 26.72 288.02 26.32C288.308 25.904 288.452 25.304 288.452 24.52C288.452 23.752 288.292 23.176 287.972 22.792C287.668 22.408 287.108 22.216 286.292 22.216H285.284ZM294.255 37V19.912H296.703V34.552H301.551V37H294.255ZM304.338 37V19.912H311.634V22.216H306.786V27.232H311.01V29.536H306.786V34.552H311.634V37H304.338ZM314.421 37V19.912H316.773L319.917 28.96H319.965L323.085 19.912H325.461V37H323.013V26.608H322.965L320.541 33.952H319.317L316.917 26.608H316.869V37H314.421Z" fill="white"/>
<path d="M90 0H0V43.7391H90V0Z" fill="#DA4739"/>
<path d="M20.3485 30.6763C20.3577 31.6955 20.1574 32.7054 19.7604 33.6424C18.9978 35.4464 17.5755 36.8835 15.79 37.654C14.8756 38.0445 13.8929 38.2457 12.9002 38.2457C11.9075 38.2457 10.9249 38.0445 10.0105 37.654C8.22497 36.8835 6.80267 35.4464 6.04004 33.6424C5.64302 32.7054 5.44276 31.6955 5.45191 30.6763V5.48839H10.0452V30.22C10.0452 31.375 10.3165 32.2266 10.8592 32.7749C11.1256 33.0468 11.4447 33.2603 11.7966 33.4018C12.1484 33.5433 12.5254 33.6098 12.9039 33.5973C13.2803 33.6077 13.6548 33.5401 14.0044 33.3986C14.3539 33.2572 14.6711 33.0449 14.9363 32.7749C15.4773 32.2283 15.7478 31.3767 15.7478 30.22V5.48839H20.3485V30.6763Z" fill="white"/>
<path d="M25.6267 5.48839H30.0538L37.007 25.0651H37.0988V5.48839H41.7045V37.9774H37.3693L30.3243 18.4484H30.2324V37.9774H25.6267V5.48839Z" fill="white"/>
<path d="M51.8018 5.48839H47.1937V37.9774H51.8018V5.48839Z" fill="white"/>
<path d="M59.4822 9.86857H55.0278V5.48839H68.5447V9.86857H64.0904V37.9774H59.4822V9.86857Z" fill="white"/>
<path d="M71.7062 5.48839H84.563V9.86857H76.3119V19.4062H83.3867V23.7864H76.3119V33.324H84.563V37.9774H71.7062V5.48839Z" fill="white"/>
<path d="M3.97044 47.3496H6.45197L10.4224 56.812H7.63814L6.96068 55.1346H3.37488L2.70983 56.812H0L3.97044 47.3496ZM6.22863 53.1163L5.19383 50.446L4.14415 53.1163H6.22863Z" fill="white"/>
<path d="M15.2564 47.4173H17.9811L20.1971 51.0528L22.4181 47.4173H25.1403V56.812H22.5769V51.4163L20.1971 55.0945H20.145L17.7801 51.4439V56.812H15.2564V47.4173Z" fill="white"/>
<path d="M31.364 47.4173H38.8433V49.6312H33.915V51.0528H38.3793V53.1062H33.915V54.598H38.9103V56.812H31.364V47.4173Z" fill="white"/>
<path d="M44.871 47.4173H49.2682C50.6901 47.4173 51.6728 47.7908 52.2957 48.4352C52.5755 48.7225 52.7933 49.0654 52.9351 49.4422C53.0769 49.819 53.1397 50.2214 53.1196 50.624V50.6466C53.1404 51.2692 52.9672 51.8828 52.6243 52.4006C52.2815 52.9184 51.7863 53.3143 51.2088 53.5325L53.4273 56.8069H50.4494L48.5784 53.9612H47.4493V56.8069H44.871V47.4173ZM49.1491 51.9303C50.0251 51.9303 50.5288 51.5016 50.5288 50.8171V50.7895C50.5288 50.0524 49.9978 49.6763 49.1342 49.6763H47.4493V51.9328L49.1491 51.9303Z" fill="white"/>
<path d="M61.2143 47.4173H58.6236V56.812H61.2143V47.4173Z" fill="white"/>
<path d="M66.5322 52.151V52.1234C66.5322 49.3855 68.6167 47.2392 71.4332 47.2392C73.3341 47.2392 74.555 48.0441 75.3788 49.1974L73.4408 50.7018C72.9097 50.0298 72.2968 49.6011 71.4084 49.6011C70.1056 49.6011 69.1899 50.7143 69.1899 52.0833V52.1108C69.1899 53.5199 70.1056 54.6181 71.4084 54.6181C72.3787 54.6181 72.9494 54.1618 73.5078 53.4773L75.4458 54.8738C74.5699 56.0949 73.3862 56.995 71.329 56.995C70.6962 57.0062 70.0677 56.8886 69.4809 56.6491C68.8941 56.4097 68.361 56.0533 67.9133 55.6013C67.4657 55.1493 67.1128 54.6108 66.8755 54.0181C66.6382 53.4253 66.5214 52.7903 66.5322 52.151Z" fill="white"/>
<path d="M83.558 47.3496H86.0395L89.9975 56.812H87.2381L86.5606 55.1346H82.9723L82.3073 56.812H79.5975L83.558 47.3496ZM85.8162 53.1163L84.7789 50.446L83.7292 53.1163H85.8162Z" fill="white"/>
<line x1="110.5" y1="-2.18557e-08" x2="110.5" y2="57" stroke="#B8B3AF"/>
</svg>
